<?xml version="1.0" encoding="utf-8"?>
<!DOCTYPE svg PUBLIC "-//W3C//DTD SVG 1.1//EN" "http://www.w3.org/Graphics/SVG/1.1/DTD/svg11.dtd">
<svg version="1.1" id="图形" xmlns="http://www.w3.org/2000/svg" xmlns:xlink="http://www.w3.org/1999/xlink" x="0px" y="0px" width="1024px" height="1024px" viewBox="0 0 1024 1024" enable-background="new 0 0 1024 1024" xml:space="preserve">
  <path fill="#a9b7b7" d="M472.449 406.653c0-43.664-35.437-79.102-79.102-79.102h-197.754c-43.664 0-79.102 35.437-79.102 79.102v197.754c0 43.664 35.438 79.102 79.102 79.102h197.754c43.664 0 79.102-35.438 79.102-79.102v-197.754zM907.508 406.653c0-43.664-35.438-79.102-79.102-79.102h-197.754c-43.664 0-79.102 35.437-79.102 79.102v197.754c0 43.664 35.437 79.102 79.102 79.102h197.754c43.664 0 79.102-35.438 79.102-79.102v-197.754zM907.508-28.406c0-43.664-35.438-79.102-79.102-79.102h-197.754c-43.664 0-79.102 35.438-79.102 79.102v197.754c0 43.664 35.437 79.102 79.102 79.102h197.754c43.664 0 79.102-35.437 79.102-79.102v-197.754zM472.449-28.406c0-43.664-35.437-79.102-79.102-79.102h-197.754c-43.664 0-79.102 35.438-79.102 79.102v197.754c0 43.664 35.438 79.102 79.102 79.102h197.754c43.664 0 79.102-35.437 79.102-79.102v-197.754z" transform="translate(0, 812) scale(1, -1)"/>
</svg>
