<?xml version="1.0" encoding="utf-8"?>
<!DOCTYPE svg PUBLIC "-//W3C//DTD SVG 1.1//EN" "http://www.w3.org/Graphics/SVG/1.1/DTD/svg11.dtd">
<svg version="1.1" id="图形" xmlns="http://www.w3.org/2000/svg" xmlns:xlink="http://www.w3.org/1999/xlink" x="0px" y="0px" width="1024px" height="1024px" viewBox="0 0 1024 1024" enable-background="new 0 0 1024 1024" xml:space="preserve">
  <path fill="#272636" d="M832.448 180.896c-99.328 76.48-188.544 95.36-188.544 95.36L643.904 304.48c0 0 70.08 49.024 94.336 92.992 19.968 36.096 38.848 71.424 28.352 182.208-9.792 105.152-51.776 152.768-51.776 152.768s-54.848 73.856-192.448 79.232c-117.952 4.672-187.392-62.08-201.216-77.12C307.328 719.648 257.344 673.056 250.944 585.504 243.456 481.952 263.36 432.032 279.296 397.792 295.232 363.616 361.792 306.4 361.792 306.4l0.96-29.696c0 0-97.088-17.728-170.048-94.976-144-152.384-122.176-364.352-122.176-364.352l878.976 1.216C949.504-181.408 963.584 62.624 832.448 180.896zM372.544 367.136c-16.192 17.28-28.032 45.76-28.032 45.76S328.32 480.928 336.896 531.744c8.832 51.904 34.432 94.976 34.432 94.976l272.96 0.96c0 0 27.136-29.12 37.952-96.256 10.88-68.544-3.2-118.912-3.2-118.912s-4.48-16.64-33.152-45.376C631.168 352.288 564.16 320.16 499.776 322.016 439.104 323.744 380.416 358.752 372.544 367.136z" transform="translate(0, 812) scale(1, -1)"/>
</svg>
