<?xml version="1.0" encoding="utf-8"?>
<!DOCTYPE svg PUBLIC "-//W3C//DTD SVG 1.1//EN" "http://www.w3.org/Graphics/SVG/1.1/DTD/svg11.dtd">
<svg version="1.1" id="图形" xmlns="http://www.w3.org/2000/svg" xmlns:xlink="http://www.w3.org/1999/xlink" x="0px" y="0px" width="1024px" height="1024px" viewBox="0 0 1024 1024" enable-background="new 0 0 1024 1024" xml:space="preserve">
  <path fill="#272636" d="M293.333-71.239c0-5.776-2.33-8.682-6.95-8.682-4.62 0-7.806 3.465-9.539 10.394-1.732 21.389-12.426 57.514-32.082 108.375-15.035 35.248-30.072 70.536-45.087 105.785-16.191 38.713-31.226 58.109-45.087 58.109-8.085 0-14.736-5.496-19.934-16.489-3.485-8.683-5.218-16.769-5.218-24.256 0.578-19.676 10.993-59.265 31.227-118.81 15.592-47.395 30.050-86.667 43.353-117.893 1.155-3.465-0.877-5.217-6.074-5.217-5.775 0-9.818 3.186-12.128 9.519-45.683 121.956-68.505 198.268-68.505 228.936 0 38.714 12.427 58.071 37.28 58.071 15.613 0 27.742-7.209 36.424-21.667 6.93-13.86 13.562-27.441 19.934-40.744 9.24-16.211 23.121-48.87 41.622-97.978 20.81-54.326 34.391-96.823 40.764-127.453zM901.141 272.964c4.043-2.312 5.777-5.777 5.196-10.397 0-4.62-1.732-8.403-5.196-11.272-9.241-8.084-13.581-15.454-13.004-22.105 0.576-6.65-1.735-10.276-6.931-10.834-31.225-3.465-54.046-11.271-68.503-23.419 11.55-7.527 26.306-17.325 44.229-29.473 9.239-7.526 13.561-16.769 13.004-27.761 0.557-11.55 0.278-32.938-0.876-64.163-0.577-9.838-5.777-13.581-15.613-11.272-13.881 2.31-34.692 6.372-62.412 12.148-4.063-3.466-8.404-2.629-13.024 2.588-0.579-16.17-7.229-65.001-19.935-146.53-1.751-6.332-4.919-9.52-9.537-9.52-5.778 0-8.085 3.187-6.932 9.52 7.51 35.846 13.581 72.569 18.203 110.126 5.196 45.646 4.043 73.963-3.466 84.956-1.155-4.023-5.218-32.342-12.147-84.956-2.888-24.852-7.807-61.256-14.737-109.25-1.732-6.373-4.919-9.56-9.537-9.56-5.22 0-7.529 3.187-6.932 9.56 13.862 58.39 19.933 102.002 18.203 130.919-24.852-9.837-46.241-21.11-64.164-33.816-9.836-6.93-15.034-4.46-15.613 7.369-0.577 11.869-2.311 29.633-5.198 53.331-10.991-17.923-39.312-71.374-84.973-160.39-2.888-4.621-6.653-6.972-11.272-6.972-3.466 0-5.198 1.196-5.198 3.506 0 1.156 0.577 2.589 1.732 4.302 9.239 16.21 26.007 46.838 50.303 91.924 19.058 38.157 40.725 83.521 65.022 136.136-9.263-2.908-19.656-4.62-31.206-5.218-13.305 0-21.687 1.753-25.153 5.218-9.836-27.76-25.153-69.102-45.962-123.987-12.15-23.14-29.195-58.11-51.161-104.909-3.466-5.218-7.507-7.808-12.127-7.808-2.908 0-4.342 1.155-4.342 3.466 0 1.155 0.577 2.589 1.731 4.342 13.304 21.387 30.928 57.512 52.894 108.373 5.196 11.551 20.809 55.484 46.819 131.795-9.24 9.239-20.513 20.789-33.815 34.69-6.932 8.643-5.778 15.016 3.466 19.077 11.55 4.622 25.728 12.109 42.496 22.544-4.063 2.866-16.769 6.929-38.157 12.108-11.569 2.907-20.809 8.402-27.739 16.489-2.311-26.605-12.428-83.802-30.35-171.663-17.345-83.243-36.702-141.353-58.090-174.291-2.907-5.218-6.373-7.806-10.416-7.806-2.887 0-4.32 1.154-4.32 3.465 0 1.154 0.279 2.31 0.855 3.465 16.17 30.072 35.548 89.615 58.091 178.632 11.55 47.395 22.244 102.877 32.082 166.484 2.888 20.791-1.155 38.435-12.127 52.893-4.064-16.769-4.641-32.979-1.732-48.591 1.713-10.396-0.877-17.605-7.807-21.669-4.621-47.993-7.527-77.188-8.682-87.583-1.732-17.327-5.198-38.156-10.397-62.411-4.062-20.83-13.303-53.489-27.76-97.981-14.458-44.488-24.276-71.094-29.473-79.776-2.31-4.62-5.776-6.929-10.396-6.929-5.796 0-7.527 2.31-5.197 6.929 2.867 4.62 7.488 13.581 13.86 26.884-2.888 67.628-16.469 157.523-40.744 269.64-10.415-97.103-15.613-178.312-15.613-243.632 0-19.080 2.588-36.126 7.806-51.141 0.577-5.776-2.311-8.682-8.662-8.682-5.795 0-8.982 3.186-9.539 9.519 0 13.901-3.485 30.071-10.416 48.59-6.372 16.172-12.725 32.064-19.077 47.676-8.683 22.543-20.81 79.459-36.403 170.827-16.211 94.195-29.495 157.483-39.889 189.864-6.373 19.077-12.446 38.156-18.222 57.235-9.838 25.411-19.358 38.156-28.596 38.156-16.769 0-25.153-15.891-25.153-47.675 0-9.837 1.435-26.048 4.342-48.592 10.395-78.622 48.252-198.268 113.572-358.937 15.016-37.558 26.288-68.785 33.815-93.678 2.31-6.93 0-10.395-6.93-10.395-2.311 0-4.043 2.030-5.198 6.094-5.795 15.015-17.364 44.808-34.69 89.296-19.656 47.953-41.323 108.374-65.020 181.222-28.917 86.707-46.262 149.399-52.037 188.152-2.311 14.456-3.465 27.441-3.465 39.032 0 39.868 12.128 63.845 36.424 71.97 20.233 6.333 41.62-28.357 64.164-104.072 9.818-32.382 23.121-98.855 39.888-199.424 15.015-86.707 31.206-151.151 48.551-193.368 2.888 41.62 5.496 83.52 7.807 125.739 4.62 60.699 9.818 103.476 15.613 128.328-10.992 30.032-24.017 67.311-39.032 111.839-6.931 2.31-11.272 6.055-13.004 11.272-5.776 20.233-17.923 42.776-36.425 67.629-4.62 6.373-3.902 11.551 2.171 15.613 6.054 4.064 14.019 9.559 23.856 16.49-1.154 8.643-11.849 40.467-32.082 95.39-9.838 27.153-14.756 52.006-14.756 74.55 0 39.868 12.426 59.822 37.3 59.822 17.326 0 30.629-8.682 39.888-26.007 4.62-7.527 11.251-26.606 19.934-57.235 9.24-32.382 16.768-69.372 22.543-110.994 28.318-12.704 50.283-24.575 65.897-35.527-6.372 20.792-14.756 52.017-25.153 93.638-2.31 10.982 0 18.789 6.951 23.41 19.077 12.127 41.898 28.318 68.485 48.55 7.509 7.509 13.862 6.931 19.080-1.732 16.17-28.915 34.093-52.613 53.769-71.104 6.352-6.373 7.209-13.86 2.588-22.542-9.836-21.387-22.842-49.148-39.012-83.242 15.016 7.527 35.247 21.666 60.698 42.497 6.354 5.178 12.426 6.054 18.203 2.588 19.079-10.395 39.888-20.789 62.432-31.185 5.196 13.262 10.117 36.961 14.736 71.095 6.353 44.498 10.116 69.93 11.272 76.302 12.147 61.833 35.548 92.184 70.238 91.029 21.388-1.154 32.085-19.954 32.085-56.358 0-18.5-3.189-39.311-9.54-62.432-19.079-67.62-42.776-136.722-71.094-207.22 0-0.597 13.283-11.551 39.887-32.938 5.778-5.218 8.367-12.148 7.808-20.83-0.599-20.83-1.174-46.241-1.752-76.311 22.542 11.55 39.61 22.263 51.158 32.101 6.353 5.178 13.862 6.333 22.544 3.466 9.238-2.906 25.729-10.99 49.426-24.292zM464.995 452.471c-31.225 24.256-58.39 41.303-81.489 51.141-5.218-0.597-11.571-3.465-19.079-8.682-7.528-5.178-12.427-7.768-14.737-7.768-3.485 0-5.218 1.713-5.218 5.178 0 2.311 1.433 4.621 4.341 6.931 9.241 8.084 18.781 13.303 28.618 15.612-2.907 28.917-10.137 63.289-21.688 103.187-8.084 27.74-14.157 45.942-18.202 54.625-8.105 15.613-17.644 23.419-28.616 23.419-16.768 0-25.132-15.035-25.132-45.087 0-22.543 4.9-47.117 14.737-73.693 10.396-29.512 17.326-48.87 20.81-58.11 6.93-17.922 12.408-28.596 16.469-32.063 5.198-5.217 4.9-10.155-0.875-14.776-8.683-5.775-19.079-12.706-31.207-20.789 6.93-12.706 13.562-25.132 19.934-37.281 9.837-16.767 17.923-26.327 24.295-28.637 6.332 2.311 21.369 4.779 45.066 7.369 23.698 2.588 39.61 3.027 47.694 1.315-1.731 6.373-2.011 13.303-0.855 20.83-9.837 3.465-36.703 10.674-80.632 21.666-5.796 1.154-8.684 4.023-8.684 8.682 0 6.93 3.465 9.52 10.416 7.807 15.015-4.063 43.055-10.435 84.098-19.079 2.311 5.179 8.942 11.233 19.934 18.204zM390.436 377.035c-15.614-2.907-27.462-4.342-35.548-4.342 6.93-34.132 16.747-60.698 29.473-79.776 4.043 20.789 6.074 48.829 6.074 84.118zM494.489 246.954c-3.465 1.753-14.597-1.872-33.397-10.833-18.8-8.962-31.067-15.455-36.842-19.516-7.527-5.776-12.726-4.341-15.613 4.342-1.732 6.929-6.651 17.325-14.737 31.225 21.965-102.917 37.001-190.182 45.087-261.874 21.965 42.775 40.466 128.327 55.501 256.656zM504.883 358.833c-0.577 0-8.383 0-23.399 0-8.106-26.048-17.943-56.955-29.494-92.802-1.732-5.776-4.341-8.682-7.806-8.682-3.466 0-5.197 2.030-5.197 6.094 0 0.557 9.818 33.535 29.494 98.854-3.485 3.466-8.683 8.643-15.613 15.614-21.986-32.979-41.064-63.607-57.234-91.926 5.775-12.148 15.034-30.35 27.76-54.645 2.867 1.155 27.441 12.705 73.684 34.69 5.195 28.916 7.804 59.824 7.804 92.802zM437.254 377.035h-33.814c0-2.907-0.578-12.148-1.733-27.76-1.154-13.303-1.454-22.265-0.876-26.884 16.769 17.922 28.896 36.125 36.424 54.645zM569.924 553.914c-11.569 17.326-30.348 43.344-56.357 78.035-12.726-3.466-36.144-19.656-70.239-48.551 10.396-65.928 24.853-108.386 43.353-127.463 0.557 9.798 2.867 27.562 6.93 53.291 4.043 25.73 5.915 43.096 5.637 52.058-0.279 8.961 1.891 13.422 6.511 13.422 5.775 0 8.365-4.024 7.807-12.109-2.311-18.52-4.64-37.041-6.951-55.521-2.886-22.543-4.321-39.311-4.321-50.264 6.93 1.155 12.985 0.835 18.203-0.877 15.015 22.543 31.504 55.203 49.427 97.978zM549.114 409.973c0 9.838-4.78 18.203-14.318 25.132-9.538 6.93-20.671 10.435-33.376 10.435-13.303 0-24.714-3.505-34.254-10.435-9.539-6.93-14.298-15.294-14.298-25.132 0-9.837 4.758-18.24 14.298-25.17 9.539-6.931 20.95-10.397 34.254-10.397 12.705 0 23.838 3.465 33.376 10.397 9.538 6.93 14.318 15.332 14.318 25.17zM618.476 305.064c-11.572 15.016-29.193 36.961-52.893 65.876-6.929 2.311-14.157 3.187-21.666 2.629 26.008-34.133 39.014-54.924 39.014-62.451 0-4.62-2.030-6.93-6.074-6.93-2.909 0-5.218 1.752-6.931 5.218-8.104 10.952-19.952 30.031-35.546 57.234-5.796-4.063-11.293-6.094-16.49-6.094 10.992-31.783 23.997-58.947 39.032-81.489 17.327-9.839 33.794-13.304 49.408-10.437 5.773 13.304 9.835 25.452 12.146 36.444zM690.448 452.471c-24.854 17.327-50.583 32.062-77.169 44.21-26.606-19.079-50.883-35.567-72.847-49.427 5.773-5.219 9.26-9.52 10.413-12.985 42.18 13.86 75.417 21.070 99.712 21.666 5.197 0 7.808-2.629 7.808-7.807 0-5.775-2.61-8.961-7.808-9.559-16.768-1.154-47.992-6.651-93.638-16.449 4.621-9.279 4.621-20.233 0-32.938 15.016-0.598 36.405-2.629 64.164-6.094 28.896 18.48 52.018 41.62 69.364 69.381zM694.788 177.613c-2.329 7.487-5.517 12.984-9.538 16.448-28.915-1.752-47.694-2.031-56.358-0.875-4.639 0.597-6.671 3.187-6.074 7.807 0 4.063 1.732 6.094 5.196 6.094 16.77-0.598 35.271 0.558 55.504 3.465 4.021 5.775 4.598 10.991 1.73 15.613-1.752 0.558-21.985 3.743-60.698 9.52-16.19-4.063-33.535-12.427-52.037-25.132 9.24-9.24 23.698-23.419 43.353-42.497 20.812 1.711 47.118 4.897 78.921 9.559zM664.44 401.291c-7.529-6.93-17.646-15.892-30.351-26.885-6.95-5.178-13.601-6.93-19.954-5.178-4.619 0-13.302 0.278-26.008 0.876 9.819-17.366 22.247-34.132 37.282-50.304 6.352-6.93 7.228-15.613 2.606-26.008-5.775-13.303-8.961-28.040-9.538-44.209 12.705 16.169 28.040 66.752 45.964 151.708zM790.158 602.456c6.352 21.965 9.538 41.62 9.538 58.967 0 24.276-6.073 36.424-18.201 36.424-15.613 0-27.62-5.795-36.006-17.345-8.385-11.571-15.174-30.927-20.355-58.091-5.794-38.733-15.91-88.449-30.348-149.148 2.311 0 5.198-2.311 8.662-6.93 3.466-4.62 5.198-8.684 5.198-12.149 0-1.155-0.576-2.31-1.732-3.465-5.216-7.527-14.177-18.799-26.883-33.814-16.19-78.025-30.070-133.546-41.621-166.485 10.991-3.465 27.461-6.054 49.427-7.806-1.153 16.17-4.619 39.311-10.396 69.382-2.309 7.488-1.732 13.581 1.732 18.202 7.51 7.527 17.625 18.482 30.351 32.938 19.634 53.768 46.52 133.545 80.632 239.32zM748.538 141.168c1.153 8.086-0.301 13.303-4.342 15.615-4.043 1.713-8.382 1.433-13.004-0.877-20.233-41.023-31.225-61.535-32.938-61.535-2.311 0-3.466 1.714-3.466 5.179 0 5.776 8.662 24.853 26.009 57.235-2.311 5.776-8.683 8.961-19.079 9.559-19.079-19.079-34.412-38.475-45.964-58.11 1.732-13.861 4.343-34.969 7.809-63.288 15.015 7.489 35.826 19.079 62.43 34.69 5.198 14.417 12.706 34.93 22.544 61.534zM769.349 342.344c-5.22 5.178-17.069 15.614-35.55 31.226-9.259-10.993-24.574-28.040-45.962-51.18 4.043-19.079 9.82-45.087 17.345-78.026 6.354 2.869 14.159 5.777 23.42 8.683-0.597 5.776-0.876 19.916-0.876 42.457 0 7.527 2.311 11.272 6.929 11.272 4.044 0 6.076-3.465 6.076-10.395 0-16.768 0.576-32.103 1.73-45.964 8.662-6.372 14.159-9.239 16.491-8.642 4.619 9.239 7.209 25.411 7.783 48.551 0.001 27.722 0.859 45.088 2.613 52.018zM775.422 202.743c0 8.683-3.903 16.17-11.708 22.543-7.808 6.332-17.209 9.519-28.18 9.519-26.606 0-39.889-8.365-39.889-25.132 0-9.239 4.043-17.923 12.129-26.008 8.084-8.085 17.345-12.148 27.761-12.148 10.971 0 20.372 3.026 28.18 9.122 7.803 6.054 11.707 13.422 11.707 22.104zM856.055 80.468c2.889 17.327 1.73 39.311-3.466 65.916-15.613 12.149-37.579 28.597-65.896 49.429l-3.466-14.736c9.239-11.591 21.088-27.204 35.546-46.839 1.155-1.753 1.732-3.744 1.732-6.054 0-5.776-2.608-8.683-7.805-8.683-1.754 0-3.189 0.877-4.342 2.589-13.304 20.232-25.153 35.846-35.548 46.839-5.775-4.063-8.961-10.396-9.54-19.080 5.778-15.056 10.416-26.007 13.882-32.938 5.196-12.148 10.395-20.829 15.613-26.008 15.015-2.907 36.127-6.372 63.289-10.436zM890.747 259.102c-13.881 10.992-30.070 19.636-48.573 26.008-16.768-10.992-39.012-24.574-66.751-40.745-2.31-8.084-2.031-12.426 0.857-13.024 30.628 14.457 52.313 24.294 65.041 29.512 4.041 1.713 6.929 0.56 8.662-3.504 1.155-4.621 0-7.807-3.464-9.521-11.572-5.217-32.083-14.736-61.556-28.596-1.157-5.814 1.732-8.682 8.662-8.682 6.93 0 19.080 3.465 36.423 10.396 12.128 4.62 24.277 9.238 36.424 13.86 8.663 6.372 16.748 14.456 24.276 24.295z" transform="translate(0, 812) scale(1, -1)"/>
</svg>
