<?xml version="1.0" encoding="utf-8"?>
<!DOCTYPE svg PUBLIC "-//W3C//DTD SVG 1.1//EN" "http://www.w3.org/Graphics/SVG/1.1/DTD/svg11.dtd">
<svg version="1.1" id="图形" xmlns="http://www.w3.org/2000/svg" xmlns:xlink="http://www.w3.org/1999/xlink" x="0px" y="0px" width="1024px" height="1024px" viewBox="0 0 1024 1024" enable-background="new 0 0 1024 1024" xml:space="preserve">
  <path fill="#272636" d="M910.819776 401.393271c-2.400676-8.399297-3.90289-20.690228-4.50664-36.897352-0.591471-16.194844-2.092661-28.191062-4.495384-35.986609-23.399943-88.190575-53.991682-153.574724-91.787496-196.171891-34.18866-37.797861-80.691787-82.785471-139.473565-134.979204-38.992059-34.198893-62.09422-67.796082-69.287039-100.777241-0.603751-4.210905-3.300162-5.713119-8.102538-4.505617-4.200672 0.591471-5.701862 3.299139-4.495384 8.103562 5.393847 26.995841 19.186991 52.78418 41.391712 77.388555 5.995551 6.601348 27.587312 26.393113 64.789609 59.386552 35.987632 31.184233 70.790276 65.98483 104.375186 104.385419 23.399943 25.790386 44.396139 60.592007 62.993706 104.386442 19.805068 46.183855 30.001291 86.678128 30.602995 121.479749 0.593518 8.991792 1.195222 16.183588 1.798972 21.600971-31.798217-19.803022-57.894571-41.403992-78.289064-64.802912-1.207501-1.195222-3.609201-7.488555-7.205099-18.892279 11.996219 7.192819 29.398564 18.004049 52.194756 32.388664 7.203052 4.803399 10.79895 3.00545 10.79895-5.393847 0-28.794813-7.498788-56.700373-22.49841-83.695191-15.59314-24.581861-31.492248-48.892547-47.686069-72.884984-8.400321-13.20065-21.307282-28.497031-38.695301-45.887097-24.003693-24.605398-37.796838-38.992059-41.403992-43.202964-28.191062-29.989011-56.382125-59.977-84.584444-89.977267-31.194466-34.803667-54.889121-68.091818-71.083965-99.878778-1.207501-3.004427-3.302209-4.505617-6.305613-4.505617-7.192819 0-9.28548 3.299139-6.293333 9.900487l1.798972 3.596921c-3.597945 1.797949-9.002025 4.199649-16.194844 7.191796-4.802376-9.593496-8.400321-14.384615-10.800997-14.384615-6.601348 0-8.696056 3.300162-6.293333 9.900487 8.991792 22.193465 31.490202 52.182476 67.490114 89.979314 26.995841 29.396517 54.285371 58.497299 81.884962 87.292112 0.603751 4.187369 2.696412 6.588045 6.29538 7.190773 59.395762 70.197782 100.787474 148.772348 124.187417 235.767701 6.588045 22.784936 9.889231 44.989657 9.889231 66.590628 0 60.58075-5.100158 101.676727-15.297404 123.278721-10.197246-106.184391-71.983451-209.967082-185.371918-311.348074-54.583153-48.596811-104.077404-105.888655-148.474566-171.875532-2.4017-40.197514-10.494005-70.493517-24.298406-90.88801-1.194198-2.4017-3.300162-3.300162-6.293333-2.707668-0.603751-9.582239 0-21.895683 1.797949-36.886095 10.800997 17.401322 22.797215 41.392736 35.997865 71.984475 16.799618 40.790008 27.291576 65.394383 31.491225 73.794703 10.197246 20.986987 26.39209 43.497677 48.596811 67.48909 19.199271 20.394493 38.695301 40.492226 58.486042 60.295248 32.389688 35.396161 65.087391 70.790276 98.079806 106.184391 34.80469 40.186258 60.001559 81.283258 75.592652 123.278721l12.599969-5.393847c-6.601348-16.2061-11.700483-40.197514-15.295358-71.995731-4.199649-33.596166-8.696056-57.58758-13.496385-71.995731-7.205099-20.986987-19.805068-44.989657-37.798884-71.984475-17.99177-26.995841-34.790364-47.993061-50.39169-62.99473-60.595077-58.793034-90.890057-88.179318-90.890057-88.179318-38.992059-41.403992-64.780399-76.798107-77.389578-106.184391 0.601704-1.206478-0.446162-5.701862-3.14155-13.497409-2.698458-7.806803-4.347005-12.905938-4.950755-15.294334-0.603751-4.804423-2.994194-6.601348-7.190773-5.40715-4.804423 0.602727-6.601348 2.993171-5.408173 7.204076 0.603751 5.998621 2.106987 12.292977 4.497431 18.891256-11.392468-0.590448-23.696702-2.092661-36.886095-4.505617-3.608178-6.589069-7.499811-12.883425-11.69946-18.891256-1.797949-3.006474-4.199649-3.892657-7.205099-2.698458-2.992147 0.602727-4.790096 2.4017-5.393847 5.40715 0-6.010901-2.105964-9.003048-6.293333-9.003048-4.802376 0-6.907317 2.4017-6.305613 7.204076 0.592494 35.393091-3.595898 85.788875-12.598946 151.172001-8.399297 59.385529-16.194844 101.380992-23.399943 125.97411-7.192819 24.607444-21.145599 53.991682-41.835827 88.191598-20.701484 34.199916-40.049135 60.286038-58.042951 78.290087-3.004427 3.004427-7.205099 7.192819-12.598946 12.58769 0.591471-17.98256-1.502213-44.385906-6.304589-79.189573-5.39487-37.192064-8.092305-61.773925-8.092305-73.770144 0-60.604286 5.690606-102.58747 17.09433-125.987413 5.393847-10.800997 24.298406-41.995463 56.688093-93.597725-20.998243 49.803289-33.891901 80.998779-38.694277 93.597725-11.996219 36.589336-17.992793 69.87851-17.992793 99.878778 0 16.798595 1.797949 38.241976 5.393847 64.348564 3.608178 26.085098 5.40715 46.036499 5.40715 59.841923 0 4.188392 1.50119 6.89606 4.495384 8.092305 3.595898 0.603751 6.29231-1.195222 8.102538-5.40715 7.192819-10.787694 17.992793-26.995841 32.390711-48.573275 10.800997-17.413602 19.803022-39.60502 26.995841-66.600861 6.600325-23.39892 13.349029-46.798862 20.247136-70.197782 6.89606-23.387663 13.644765-59.386552 20.246113-107.983363 6.601348-48.584532 13.497409-84.273359 20.701484-107.071597 1.195222-4.210905-0.306992-6.897084-4.50664-8.102538-4.188392-1.206478-7.04444 0.750083-8.547677 5.849218-1.489934 5.098111-3.152806 11.244089-4.950755 18.449187l-0.898463 0c-3.595898-1.195222-9.29776-2.993171-17.09433-5.40715 1.195222-4.187369 1.797949-8.091282 1.797949-11.69946 1.206478-7.78429-2.4017-11.688203-10.799974-11.688203-3.596921 0-6.293333 1.194198-8.092305 3.595898-10.197246 17.403369-25.800619 45.297672-46.797839 83.683934-13.794168 20.396539-32.698726 51.602262-56.689117 93.597725-10.197246 20.394493-16.194844 51.884694-17.992793 94.484931-1.797949 0-3.301186 0.887206-4.50664 2.685155-35.986609 33.596166-59.681264 56.69935-71.084988 69.287039-24.594141 27.609825-42.59819 55.197136-53.990658 82.796728-2.4017 6.601348-0.296759 9.901511 6.293333 9.901511 49.802266 0 94.496188-10.504238 134.089951-31.491225 4.188392 32.982182 4.188392 58.782801 0 77.390601-4.210905 7.192819-6.305613 14.089903-6.305613 20.691251-0.602727 4.802376 0.899486 7.488555 4.495384 8.102538 3.004427 1.195222 5.849218-0.613984 8.547677-5.405103 2.707668-4.802376 4.65502-10.800997 5.861498-17.992793 10.196223-10.197246 23.387663-24.605398 39.582507-43.202964-11.995195 52.79646-17.992793 113.695458-17.992793 182.676529 0 54.594409 12.894681 120.877021 38.695301 198.87035 1.797949 5.406127 5.098111 6.589069 9.901511 3.596921 35.394115-21.589714 65.985854-65.38415 91.786473-131.370003 16.786315-43.202964 29.089525-82.192977 36.886095-116.996644 6.600325 21.0095 17.399275 52.501748 32.401967 94.484931 7.794523 21.008476 20.394493 46.206368 37.794791 75.591629 25.198915 43.201941 39.139415 67.193355 41.837874 71.995731 2.696412 4.803399 5.554506 6.897084 8.55791 6.294356 3.597945-1.195222 5.393847-3.903913 5.393847-8.092305 0-31.206746 2.994194-77.242222 8.991792-138.142244 6.009877-60.887742 9.002025-106.627483 9.002025-137.220245 0-53.990658-13.19144-128.080074-39.594787-222.270293-2.402723-9.594519-5.690606-23.38664-9.901511-41.392736 16.207124 16.798595 30.297027 30.888498 42.303478 42.292222 121.775484 108.597347 182.66425 215.077473 182.66425 319.463915 0 8.989745 3.300162 10.787694 9.901511 5.393847 20.394493-14.408151 30.591739-63.596434 30.591739-147.576103 0-15.603373-1.798972-31.195489-5.393847-46.798862 16.798595 16.798595 43.794435 36.897352 80.987522 60.285015 2.994194 2.411933 5.701862 2.708692 8.104585 0.909719C911.42148 407.697861 912.014998 404.990193 910.819776 401.393271L910.819776 401.393271zM857.729627 319.507286c-9.607822-5.406127-23.399943-14.101159-41.393759-26.096355 6.599302-3.596921 16.798595-9.605775 30.591739-18.005073C852.925205 289.81401 856.523149 304.507664 857.729627 319.507286L857.729627 319.507286zM565.271786 570.571369c0 7.795547-1.503237 19.495006-4.495384 35.087123-6.009877-13.190417-13.202697-30.296003-21.600971-51.281967 5.997598-2.412956 14.395872-5.406127 25.196869-9.014304C564.964794 553.772774 565.271786 562.159792 565.271786 570.571369L565.271786 570.571369zM767.741104 345.603641c-6.601348-11.996219-14.397918-23.990391-23.399943-35.986609 1.796926-0.615007 7.794523-3.301186 18.002003-8.103562C762.936681 304.507664 764.744863 319.211551 767.741104 345.603641L767.741104 345.603641zM562.574351 503.071022c-5.997598 3.004427-11.698436 5.713119-17.104563 8.102538-5.393847 2.412956-12.895705 3.903913-22.4892 4.507664-3.607154-9.605775-7.205099-18.300808-10.800997-26.097378 18.59552-4.199649 34.790364-9.29776 48.596811-15.307637C561.368896 484.473455 561.972647 494.07923 562.574351 503.071022L562.574351 503.071022zM820.831252 227.71979c-8.398274 5.39487-18.59552 11.700483-30.591739 18.892279-3.006474-7.783267-5.997598-15.295358-9.002025-22.4892 4.802376-4.802376 12.597923-11.69946 23.397896-20.701484C808.83708 208.826488 814.229904 216.918793 820.831252 227.71979L820.831252 227.71979zM372.695792 622.752822c-5.997598 10.209526-12.58769 18.299785-19.790742 24.309662-0.603751-7.806803-2.105964-16.501836-4.496407-26.107611C354.405217 622.160327 362.498546 622.752822 372.695792 622.752822L372.695792 622.752822zM753.343185 261.90845c-5.997598 4.210905-17.402345 9.605775-34.20094 16.207124-5.997598-7.192819-12.599969-15.000646-19.790742-23.399943 19.790742-9.604752 32.993438-17.697057 39.594787-24.287149C744.942865 242.423677 749.745241 252.917682 753.343185 261.90845L753.343185 261.90845zM595.863525 439.189086c0 30.592762-2.696412 72.281233-8.090259 125.087926-6.009877 58.782801-9.312086 100.471272-9.903557 125.07667-11.996219-20.394493-24.001647-40.788985-35.997865-61.194734-13.793144-24.00267-24.297382-45.592384-31.490202-64.791655-7.806803-22.783913-21.303188-58.794058-40.49325-107.98234 0-1.194198 0.591471-5.689582 1.798972-13.497409 13.793144 20.998243 29.088502 52.192709 45.887097 93.586468 18.004049 46.786583 31.798217 78.880535 41.391712 96.294137 2.402723 3.596921 5.110391 5.098111 8.104585 4.484128 3.004427-1.183965 4.495384-3.892657 4.495384-8.092305 0.603751-6.589069 1.956561-15.899108 4.051269-27.894304 2.106987-11.996219 3.151783-21.896706 3.151783-29.693276 0-80.987522-1.798972-137.675616-5.40408-170.077583-5.999644-37.193087-13.19144-90.876754-21.591761-161.074535-3.607154-17.391089-8.398274-43.794435-14.395872-79.18855 1.195222 0.591471 2.994194 1.502213 5.393847 2.707668 2.402723 11.382235 7.205099 30.592762 14.395872 57.588603C582.969866 313.509688 595.863525 386.393649 595.863525 439.189086L595.863525 439.189086zM397.892661 553.465782c-2.992147 13.201673-6.293333 24.901133-9.890254 35.098379-22.807449 0-38.398542-2.093684-46.797839-6.305613-2.4017-12.586666-4.199649-23.694655-5.39487-33.289174 8.990768 4.199649 22.796192 6.293333 41.392736 6.293333C385.60173 555.263731 392.49779 554.671237 397.892661 553.465782L397.892661 553.465782zM558.966173 422.994242c-10.197246 4.803399-33.289174 12.586666-69.287039 23.399943-8.398274-13.805424-13.497409-21.600971-15.296381-23.399943l0.900509-9.002025 0.898463-0.899486c20.998243-10.788717 33.598212-17.09433 37.796838-18.892279 13.793144-6.008854 27.291576-9.002025 40.492226-9.002025L558.966173 422.994242 558.966173 422.994242zM774.944156 162.028649c-6.601348 4.199649-13.498432 8.104585-20.703531 11.701506-4.802376-7.192819-9.593496-14.70491-14.395872-22.4892 1.207501-0.61603 6.293333-4.507664 15.295358-11.700483C762.936681 147.939769 769.538029 155.428324 774.944156 162.028649L774.944156 162.028649zM412.300812 485.976692l-6.304589 34.199916c-2.4017 0-5.701862 0.306992-9.901511 0.898463-4.199649 0.592494-7.795547 0.899486-10.800997 0.899486-14.395872 0-31.490202-4.792143-51.293223-14.396895 0-8.399297 0-16.797571 0-25.196869 18.005073 3.004427 34.496675 4.50664 49.496298 4.50664 5.406127 0 10.800997-0.306992 16.194844-0.910743C406.291958 485.976692 410.491607 485.976692 412.300812 485.976692L412.300812 485.976692zM716.445834 192.621411c-13.202697 7.204076-30.297027 15.910365-51.29527 26.107611l-24.297382-25.196869c27.597545-12.610202 43.794435-25.197892 48.596811-37.808094C698.452018 167.128807 707.441762 179.430994 716.445834 192.621411L716.445834 192.621411zM468.089419 296.119623c0 59.385529-3.606131 108.87057-10.799974 148.47559-7.204076 41.984207-20.998243 89.078805-41.392736 141.272537-22.796192 59.396785-49.199539 99.583043-79.18855 120.581286-23.399943-71.995731-35.099403-134.078695-35.099403-186.272427 0-80.987522 8.399297-150.285818 25.197892-207.872375 1.194198-3.596921 4.199649-8.991792 9.002025-16.183588-10.196223 85.777619-15.306614 158.969595-15.306614 219.561601 0 17.992793 3.004427 42.291199 9.002025 72.882937 6.601348 33.596166 10.504238 57.291844 11.69946 71.084988 0 7.806803 3.301186 9.604752 9.901511 5.406127 19.791765-11.392468 35.997865-34.791387 48.585555-70.185502 6.008854-16.798595 13.202697-45.296649 21.600971-85.494163 16.798595-78.5848 25.198915-139.176806 25.198915-181.77602 0-67.784826 4.495384-103.475699 13.497409-107.071597C465.382774 251.71018 468.089419 276.908072 468.089419 296.119623L468.089419 296.119623zM547.27797 337.500079c-19.803022 0-42.303478 4.803399-67.500347 14.409175 0.603751-15.603373 0.911766-32.401967 0.911766-50.39476 13.793144-2.400676 34.186613-8.102538 61.182454-17.09433C543.079344 298.804778 544.866037 316.514115 547.27797 337.500079L547.27797 337.500079zM427.585937 398.695836c-1.786693 13.19144-3.892657 27.598568-6.294356 43.190685-4.199649 0.602727-9.900487 0.899486-17.09433 0.899486-30.000268 0-51.896974-3.288906-65.690118-9.890254 0.602727-6.008854 1.797949-19.210527 3.596921-39.606043 20.99722 7.204076 36.896328 10.81123 47.697325 10.81123C410.194848 404.10094 422.793794 402.304014 427.585937 398.695836L427.585937 398.695836zM719.142246 103.542606c-2.994194 2.4017-5.997598 4.792143-8.989745 7.204076-6.601348-7.80885-13.496385-15.910365-20.701484-24.310685 3.595898-2.390443 6.601348-4.187369 9.002025-5.393847C703.243137 86.43702 710.152501 93.948087 719.142246 103.542606L719.142246 103.542606zM657.060305 121.535399c-11.404748 10.80202-18.905582 17.709337-22.500457 20.701484-7.205099 5.393847-16.194844 10.494005-26.995841 15.285125-5.997598-5.987365-14.999622-14.987343-26.995841-26.994818 9.595542-8.991792 24.595164-21.887496 44.989657-38.684044L657.060305 121.535399 657.060305 121.535399zM537.377482 225.921841c-0.603751-0.592494-10.197246 2.4017-28.794813 8.990768-18.605753 6.600325-29.100782 10.504238-31.500435 11.69946-1.196245-7.783267-2.993171-18.892279-5.39487-33.289174 13.201673-5.406127 32.390711-14.395872 57.58758-26.994818C531.073916 194.727375 533.781584 207.916768 537.377482 225.921841L537.377482 225.921841zM432.092577 313.213953c0 15.591093 0 26.39209 0 32.389688-2.4017 0-6.601348 0.295735-12.598946 0.898463s-11.403724 0.898463-16.195867 0.898463c-14.396895 0-32.993438-3.004427-55.800887-8.991792 0.603751-6.600325 1.207501-12.905938 1.810229-18.903535 26.393113-5.997598 45.284369-9.002025 56.689117-9.002025 0.591471 0 9.002025 0.910743 25.196869 2.708692L432.092577 313.211906 432.092577 313.213953zM655.261333 35.15403l0 0.899486c-0.603751 1.195222-2.402723 2.696412-5.406127 4.496407l-15.295358-16.195867c1.798972-0.602727 4.200672-1.810229 7.203052-3.607154L655.261333 35.15403 655.261333 35.15403zM432.092577 261.90845c-8.399297-1.798972-14.703887-2.686179-18.904559-2.686179-16.798595 0-36.293601 2.686179-58.486042 8.092305 9.002025-14.396895 16.798595-28.486798 23.39892-42.292222 4.792143 0 11.096732-0.444115 18.892279-1.353834 7.795547-0.887206 13.805424-1.342578 18.005073-1.342578 1.797949 0 7.499811 1.194198 17.09433 3.595898L432.092577 261.90845 432.092577 261.90845zM526.576485 138.630752c-17.402345 10.197246-37.796838 21.600971-61.193711 34.199916-2.390443-16.195867-3.301186-31.194466-2.698458-44.989657l0-0.910743c13.20065-4.187369 25.50386-10.788717 36.898375-19.791765C508.582669 117.940524 517.574461 128.432483 526.576485 138.630752L526.576485 138.630752zM594.964038 63.049357c-8.989745 9.001001-23.989367 20.701484-44.98761 35.087123-10.197246-11.995195-18.597567-23.39892-25.198915-34.187637 15.59314-10.80202 28.794813-21.897729 39.594787-33.301454C573.365114 40.253164 583.561337 51.042905 594.964038 63.049357L594.964038 63.049357zM432.092577 184.529105c-10.800997-3.607154-22.796192-4.802376-35.997865-3.607154 3.004427-9.582239 5.701862-19.791765 8.102538-30.591739 5.997598 0 15.296381 0 27.895327 0L432.092577 184.529105 432.092577 184.529105zM312.409754 254.715631c-3.595898 4.802376-9.002025 12.30321-16.194844 22.500457 0-6.601348-0.602727-14.397918-1.797949-23.387663 11.392468 0.591471 17.09433 1.182942 17.09433 1.786693L312.409754 254.715631 312.409754 254.715631zM607.564008-17.949422l-0.899486 0c-1.798972 1.207501-4.495384 2.708692-8.102538 4.50664-14.397918-14.997576-25.196869-26.700105-32.389688-35.098379 4.802376-2.38942 8.694009-5.098111 11.698436-8.103562C586.270029-44.636225 596.17154-31.742567 607.564008-17.949422L607.564008-17.949422zM342.10303 189.923976c-2.993171 11.404748-6.601348 21.908986-10.800997 31.491225l-0.898463 0c-8.990768-2.38942-22.795169-5.393847-41.391712-8.990768-1.195222-9.605775-1.797949-18.892279-1.797949-27.895327C295.612183 188.137283 313.912991 189.923976 342.10303 189.923976L342.10303 189.923976zM537.377482-1.741275c-10.800997 11.402701-22.204721 18.891256-34.198893 22.488177-1.798972-3.596921-8.400321-18.597567-19.792788-44.989657 11.392468-4.79112 21.293979-8.694009 29.694299-11.68718C519.679401-25.141218 527.771707-13.737494 537.377482-1.741275L537.377482-1.741275zM248.517585 258.312552c-0.602727 0.603751-7.79657-7.78429-21.601994-25.196869 3.00545-4.189416 8.411577-10.197246 16.207124-17.98256C243.726465 225.329347 245.524414 239.716009 248.517585 258.312552L248.517585 258.312552zM432.092577 111.634912c-4.199649 0-10.505261 0.602727-18.904559 1.797949 8.399297-38.992059 14.101159-80.371492 17.105586-124.177184 1.194198 22.203698 1.797949 42.893926 1.797949 62.09422L432.091554 111.634912 432.092577 111.634912zM217.925846 270.922754c-10.800997 2.992147-19.790742 5.393847-26.995841 7.192819 5.39487-5.39487 10.800997-11.996219 16.194844-19.804045C210.1303 260.725508 213.726198 264.912877 217.925846 270.922754L217.925846 270.922754zM361.894795 116.141552c-3.595898 10.788717-6.89606 22.4892-9.890254 35.099403-16.797571 0-37.795814-3.00545-62.992683-9.003048 1.206478-8.40953 3.004427-16.798595 5.405103-25.208125 14.396895-2.982938 28.794813-4.484128 43.191708-4.484128C347.805916 112.545654 355.908454 113.739852 361.894795 116.141552L361.894795 116.141552zM252.114506 283.509421c-33.584909 19.200294-74.078159 29.704532-121.479749 31.502481 15.603373-33.596166 53.091172-77.993329 112.48898-133.179208 0 1.798972-0.602727 6.305613-1.797949 13.496385-1.206478 3.597945-3.608178 7.193843-7.204076 10.790764-5.997598 4.802376-9.29776 7.512091-9.902534 8.103562-10.197246 14.999622-27.586288 35.68985-52.192709 62.09422-1.797949 1.798972-2.697435 3.595898-2.697435 5.393847 0 7.192819 4.495384 10.800997 13.497409 10.800997 20.394493 0 42.894949-6.293333 67.48909-18.903535L252.114506 283.509421 252.114506 283.509421zM378.100896 46.854513c-1.797949 9.593496-3.595898 18.596544-5.406127 26.994818-11.995195-3.004427-33.289174-4.505617-63.880913-4.505617 4.199649-11.404748 9.593496-24.287149 16.194844-38.695301C340.009346 32.446361 357.695147 37.851465 378.100896 46.854513L378.100896 46.854513zM390.699842-37.728908c-1.798972 8.991792-3.903913 22.193465-6.305613 39.584554-8.399297-3.006474-21.293979-8.104585-38.695301-15.297404 1.206478-2.38942 7.205099-13.793144 18.005073-34.187637C371.500571-43.442026 380.502595-40.142887 390.699842-37.728908z" transform="translate(0, 812) scale(1, -1)"/>
</svg>
