<?xml version="1.0" encoding="utf-8"?>
<!DOCTYPE svg PUBLIC "-//W3C//DTD SVG 1.1//EN" "http://www.w3.org/Graphics/SVG/1.1/DTD/svg11.dtd">
<svg version="1.1" id="图形" xmlns="http://www.w3.org/2000/svg" xmlns:xlink="http://www.w3.org/1999/xlink" x="0px" y="0px" width="1024px" height="1024px" viewBox="0 0 1024 1024" enable-background="new 0 0 1024 1024" xml:space="preserve">
  <path fill="#272636" d="M326.465888 158.114502c-11.317767 10.571776-26.485211 15.941064-44.422745 27.691689 8.801457 6.264681 11.17655 16.249079 10.007935 22.022573-1.182942 5.767354-6.308683 17.643845-18.394952 26.123984-5.559623 3.90903-24.470321 10.017144-30.477129 12.335956 0.067538-7.167237 12.850679-19.063171 5.710049-21.817911-3.344165-1.280156-6.522554 0.978281-13.70821 1.830695-8.912997 1.079588-14.174837 1.357927-23.666002 0.719384-10.027377-0.667196-24.865317-4.497431-31.43085-2.575662 4.078899-8.327666 10.183943-20.322861 15.44476-25.589818 6.42534-6.39464 8.820899-9.077749 13.824867-12.099572 7.890714-4.756327 17.695011-9.025561 17.158798-13.381775-0.535189-4.345981-10.090822-5.237281-18.370393-11.973706 13.916964-2.211365 20.770046-7.789407 27.800159-8.748245 8.523117-1.168616 22.805402-2.176572 36.050054 7.743358 4.76042 3.563152 8.824993 13.022595 8.070816 21.812795-12.880355 5.77247-21.482267 10.767228-39.122019 18.23941 34.453696-10.364045 66.844407-30.996968 85.760223-45.169759L326.465888 158.114502zM192.296119 328.036543c3.787256-7.725962 9.458419-18.86772 14.360056-23.76424 5.953595-5.929036 8.16803-8.43716 12.82612-11.235902 7.340175-4.418636 16.434298-8.375761 15.94618-12.420891-0.50142-4.03592-9.374508-4.858658-17.081027-11.128455 12.933567-2.044566 19.305695-7.232728 25.833365-8.123005 7.915273-1.089821 21.174252-2.015913 33.470299 7.184633 4.424776 3.330862 8.212032 12.110829 7.500834 20.270672-11.965519 5.368264-19.942191 10.002818-36.34272 16.943904 32.010041-9.638521 62.102407-28.791743 79.669504-41.950438l-0.234337 2.62785c-10.494005 9.827833-24.576745 14.807241-41.244356 25.706475 8.16803 5.826705 10.373255 15.110139 9.282411 20.469194-1.080611 5.350868-5.861498 16.389272-17.070794 24.264637-5.160533 3.632737-22.741957 9.302877-28.321022 11.444657 0.072655-6.638187 11.939937-17.693987 5.309936-20.259416-3.105734-1.197268-6.060019 0.914836-12.734022 1.708921-8.27957 1.001817-13.171997 1.255597-21.982664 0.666172C212.175889 329.818119 198.401164 326.264177 192.296119 328.036543zM207.026612 425.784798c3.495614-7.130398 8.732895-17.416671 13.260002-21.929452 5.501294-5.491061 7.544837-7.798617 11.843746-10.386558 6.771217-4.075829 15.163351-7.739265 14.715143-11.464099-0.462534-3.734044-8.655124-4.497431-15.771195-10.270924 11.955286-1.902326 17.836227-6.689353 23.871687-7.511067 7.291057-1.00284 19.543102-1.858324 30.890544 6.640234 4.084015 3.055592 7.573489 11.17655 6.936993 18.712177-11.04966 4.953825-18.429745 9.232269-33.558303 15.648398 29.55206-8.897647 57.317427-26.592658 73.547063-38.737256l-0.199545 2.420119c-9.69071 9.06854-22.707165 13.668301-38.095643 23.754007 7.55507 5.369288 9.585309 13.936407 8.573259 18.892279-1.003863 4.940522-5.403057 15.133675-15.767102 22.396079-4.755304 3.354398-20.990057 8.601912-26.139334 10.577916 0.058328-6.142907 11.040451-16.346293 4.90266-18.700921-2.852978-1.109264-5.612834 0.826831-11.755742 1.571798-7.643074 0.925069-12.165064 1.158383-20.298302 0.61296C225.386772 427.430274 212.662982 424.143415 207.026612 425.784798zM221.756081 516.008682c3.197832-6.55223 7.997138-15.986089 12.145621-20.133549 5.057179-5.0142 6.92676-7.140631 10.873652-9.501398 6.196119-3.743254 13.906731-7.101745 13.478989-10.519588-0.408299-3.432169-7.930623-4.122901-14.447037-9.428743 10.952446-1.737574 16.340153-6.123464 21.871123-6.873548 6.696516-0.915859 17.928325-1.713015 28.344558 6.084579 3.733021 2.808976 6.941086 10.242272 6.347568 17.148565-10.115382 4.546549-16.891715 8.480138-30.768771 14.350846 27.108405-8.148587 52.585659-24.378224 67.442018-35.519981l-0.181125 2.224668c-8.892531 8.323573-20.833491 12.539594-34.930557 21.783119 6.916527 4.925173 8.78099 12.782118 7.866155 17.314341-0.924045 4.53734-4.954849 13.892405-14.461363 20.546965-4.375657 3.076058-19.25146 7.885598-23.978111 9.695826 0.058328-5.631254 10.115382-14.987343 4.502547-17.148565-2.628874-1.017166-5.135974 0.759293-10.796904 1.445932-6.994298 0.837064-11.141758 1.050935-18.593474 0.559748C238.588445 517.502709 226.915591 514.494189 221.756081 516.008682zM234.811422 599.528887c2.911306-5.948479 7.267521-14.530948 11.054777-18.297738 4.571109-4.575202 6.284123-6.503111 9.870812-8.655124 5.65172-3.397377 12.657274-6.460132 12.267395-9.56075-0.37453-3.120061-7.209192-3.752464-13.133112-8.576329 9.958816-1.582031 14.861476-5.563716 19.884886-6.254447 6.084579-0.831948 16.311501-1.557472 25.76992 5.539156 3.411703 2.560312 6.317892 9.31618 5.782703 15.59621-9.214872 4.128017-15.362896 7.701402-27.993564 13.050224 24.645306-7.408737 47.820122-22.162766 61.353346-32.302707l-0.174985 2.02103c-8.080026 7.573489-18.940374 11.404748-31.766494 19.811208 6.29845 4.479011 7.987928 11.619642 7.15598 15.742543-0.847298 4.133134-4.502547 12.631692-13.157671 18.696828-3.966335 2.784416-17.493419 7.150864-21.796422 8.820899 0.048095-5.135974 9.204639-13.643742 4.078899-15.60542-2.375094-0.925069-4.65809 0.690732-9.794064 1.313925-6.372128 0.76441-10.148128 0.969071-16.924461 0.50142C250.110873 600.901141 239.513514 598.15561 234.811422 599.528887zM343.794555 632.809875c-7.286963 6.809079-17.051351 10.260691-28.612665 17.835204 5.671163 4.03592 7.204076 10.456143 6.449899 14.185071-0.759293 3.709485-4.069689 11.365862-11.847839 16.822131-3.573385 2.511193-15.752776 6.444782-19.627013 7.944949 0.044002-4.620227 8.274454-12.276604 3.684926-14.059204-2.152013-0.826831-4.209882 0.633427-8.834202 1.182942-5.730515 0.691755-9.126868 0.87595-15.231913 0.467651-6.459109-0.437975-16.019859-2.901073-20.24509-1.669012 2.618641-5.359055 6.55223-13.085016 9.949606-16.47216 4.122901-4.117784 5.671163-5.856381 8.902764-7.788383 5.081739-3.070942 11.385305-5.817496 11.044544-8.611122-0.344854-2.808976-6.499018-3.377934-11.838629-7.719822 8.961092-1.435699 13.386892-5.02341 17.928325-5.636371 5.480828-0.750083 14.666024-1.397836 23.199375 4.988618 3.061732 2.298346 5.680373 8.387018 5.193279 14.048971-8.27957 3.723811-13.83817 6.931876-25.205055 11.746532 22.197558-6.684236 43.064818-19.967774 55.239092-29.090549L343.794555 632.809875zM374.111025 158.114502c11.307533 10.571776 26.470885 15.941064 44.418652 27.691689-8.801457 6.264681-11.181667 16.249079-10.002818 22.022573 1.168616 5.767354 6.308683 17.643845 18.394952 26.123984 5.539156 3.90903 24.470321 10.017144 30.482245 12.335956-0.077771-7.167237-12.865006-19.063171-5.714142-21.817911 3.333932-1.280156 6.522554 0.978281 13.71742 1.830695 8.893554 1.079588 14.169721 1.357927 23.652699 0.719384 10.018168-0.667196 24.848944-4.497431 31.43085-2.575662-4.074805-8.327666-10.177803-20.322861-15.459087-25.589818-6.411013-6.39464-8.806573-9.077749-13.805424-12.099572-7.899924-4.756327-17.692964-9.025561-17.158798-13.381775 0.520863-4.345981 10.081613-5.237281 18.370393-11.973706-13.926174-2.211365-20.780279-7.789407-27.809369-8.748245-8.523117-1.168616-22.805402-2.176572-36.035728 7.743358-4.765537 3.563152-8.826016 13.022595-8.075933 21.812795 12.869099 5.77247 21.481244 10.767228 39.122019 18.23941-34.453696-10.364045-66.844407-30.996968-85.774549-45.169759L374.111025 158.114502zM508.280794 328.036543c-3.797489-7.725962-9.458419-18.86772-14.365172-23.76424-5.948479-5.929036-8.17724-8.43716-12.831236-11.235902-7.329942-4.418636-16.433274-8.375761-15.936971-12.420891 0.50142-4.03592 9.371438-4.858658 17.080004-11.128455-12.942777-2.044566-19.320021-7.232728-25.846668-8.123005-7.910157-1.089821-21.159926-2.015913-33.470299 7.184633-4.420683 3.330862-8.197706 12.110829-7.505951 20.270672 11.964496 5.368264 19.962657 10.002818 36.351929 16.943904-32.011064-9.638521-62.082964-28.791743-79.655178-41.950438l0.213871 2.62785c10.509355 9.827833 24.592095 14.807241 41.258683 25.706475-8.16803 5.826705-10.382465 15.110139-9.292644 20.469194 1.089821 5.350868 5.851265 16.389272 17.081027 24.264637 5.169743 3.632737 22.741957 9.302877 28.319999 11.444657-0.067538-6.638187-11.955286-17.693987-5.315052-20.259416 3.090385-1.197268 6.065136 0.914836 12.738116 1.708921 8.275477 1.001817 13.167904 1.255597 21.973454 0.666172C488.391814 329.818119 502.175749 326.264177 508.280794 328.036543zM493.541091 425.784798c-3.499707-7.130398-8.726755-17.416671-13.249769-21.929452-5.500271-5.491061-7.54586-7.798617-11.842723-10.386558-6.776334-4.075829-15.178701-7.739265-14.721283-11.464099 0.457418-3.734044 8.651031-4.497431 15.767102-10.270924-11.945053-1.902326-17.824971-6.689353-23.852244-7.511067-7.320733-1.00284-19.558451-1.858324-30.909987 6.640234-4.079922 3.055592-7.574512 11.17655-6.921643 18.712177 11.035334 4.953825 18.419512 9.232269 33.553187 15.648398-29.561269-8.897647-57.337893-26.592658-73.561389-38.737256l0.213871 2.420119c9.691733 9.06854 22.703071 13.668301 38.089503 23.754007-7.554046 5.369288-9.579169 13.936407-8.576329 18.892279 1.001817 4.940522 5.393847 15.133675 15.766079 22.396079 4.765537 3.354398 20.999266 8.601912 26.15059 10.577916-0.078795-6.142907-11.031241-16.346293-4.90266-18.700921 2.862187-1.109264 5.602601 0.826831 11.741415 1.571798 7.647167 0.925069 12.169157 1.158383 20.302395 0.61296C475.178885 427.430274 487.899604 424.143415 493.541091 425.784798zM478.811622 516.008682c-3.188622-6.55223-7.989975-15.986089-12.145621-20.133549-5.047969-5.0142-6.921643-7.140631-10.873652-9.501398-6.206352-3.743254-13.897521-7.101745-13.473873-10.519588 0.413416-3.432169 7.925507-4.122901 14.44192-9.428743-10.942213-1.737574-16.34527-6.123464-21.8701-6.873548-6.697539-0.915859-17.937534-1.713015-28.334325 6.084579-3.753487 2.808976-6.951319 10.242272-6.362918 17.148565 10.129708 4.546549 16.900925 8.480138 30.78412 14.350846-27.099195-8.148587-52.576449-24.378224-67.452251-35.519981l0.180102 2.224668c8.892531 8.323573 20.824281 12.539594 34.94079 21.783119-6.930853 4.925173-8.791224 12.782118-7.866155 17.314341 0.914836 4.53734 4.954849 13.892405 14.452153 20.546965 4.375657 3.076058 19.25146 7.885598 23.978111 9.695826-0.059352-5.631254-10.110265-14.987343-4.492314-17.148565 2.618641-1.017166 5.135974 0.759293 10.781554 1.445932 7.010671 0.837064 11.147898 1.050935 18.609847 0.559748C461.988468 517.502709 473.651089 514.494189 478.811622 516.008682zM465.761398 599.528887c-2.916423-5.948479-7.272637-14.530948-11.04966-18.297738-4.590552-4.575202-6.294356-6.503111-9.882068-8.655124-5.64251-3.397377-12.651135-6.460132-12.271488-9.56075 0.379647-3.120061 7.223518-3.752464 13.148461-8.576329-9.959839-1.582031-14.861476-5.563716-19.891026-6.254447-6.094812-0.831948-16.306384-1.557472-25.76992 5.539156-3.416819 2.560312-6.317892 9.31618-5.782703 15.59621 9.204639 4.128017 15.366989 7.701402 27.979238 13.050224-24.636097-7.408737-47.800679-22.162766-61.337997-32.302707l0.180102 2.02103c8.086166 7.573489 18.931165 11.404748 31.762401 19.811208-6.294356 4.479011-7.998161 11.619642-7.160073 15.742543 0.846274 4.133134 4.511757 12.631692 13.156648 18.696828 3.967358 2.784416 17.513886 7.150864 21.807678 8.820899-0.068562-5.135974-9.195429-13.643742-4.089132-15.60542 2.38942-0.925069 4.663206 0.690732 9.803273 1.313925 6.372128 0.76441 10.134825 0.969071 16.925485 0.50142C450.451714 600.901141 461.063399 598.15561 465.761398 599.528887zM356.786451 632.809875c7.28287 6.809079 17.032932 10.260691 28.588105 17.835204-5.66093 4.03592-7.188726 10.456143-6.439666 14.185071 0.759293 3.709485 4.064572 11.365862 11.843746 16.822131 3.577478 2.511193 15.776312 6.444782 19.632129 7.944949-0.044002-4.620227-8.280594-12.276604-3.680832-14.059204 2.152013-0.826831 4.216022 0.633427 8.824993 1.182942 5.739724 0.691755 9.136078 0.87595 15.246239 0.467651 6.459109-0.437975 16.000416-2.901073 20.234857-1.669012-2.618641-5.359055-6.551206-13.085016-9.954723-16.47216-4.133134-4.117784-5.66093-5.856381-8.888438-7.788383-5.081739-3.070942-11.391445-5.817496-11.044544-8.611122 0.335644-2.808976 6.487761-3.377934 11.82328-7.719822-8.966209-1.435699-13.371542-5.02341-17.903765-5.636371-5.485945-0.750083-14.685467-1.397836-23.209608 4.988618-3.066849 2.298346-5.686513 8.387018-5.203512 14.048971 8.289804 3.723811 13.829983 6.931876 25.199938 11.746532-22.182208-6.684236-43.050492-19.967774-55.229882-29.090549L356.786451 632.809875zM351.169523 646.365612c2.594081 9.618055 1.046842 19.869536 2.317789 33.630958 6.225795-3.130294 12.611226-1.440815 15.541975 0.968048 2.930749 2.40477 8.124028 8.912997 9.292644 18.346857 0.545422 4.347005-1.703805 16.959254-2.210341 21.072945-4.040013-2.205225-6.941086-13.0799-10.670014-9.852392-1.737574 1.509377-1.426489 4.015454-3.100618 8.357342-2.078335 5.393847-3.529383 8.469905-6.745634 13.663184-3.412726 5.500271-10.086729 12.778024-10.978029 17.086144-3.490497-4.823865-8.469905-11.920494-9.870812-16.521279-1.703805-5.579065-2.49789-7.744381-2.706645-11.507078-0.312108-5.929036 0.208754-12.792351-2.420119-13.805424-2.638083-1.017166-6.02625 4.152577-12.368702 6.829546 2.955308-8.581446 1.860371-14.165628 3.446495-18.46249 1.922792-5.194302 5.656837-13.616112 15.294334-18.147312 3.465938-1.620917 10.07138-1.080611 14.842033 2.00568-0.603751 9.06854-0.369414 15.474436-1.450025 27.760251 4.527107-22.717398 2.584871-47.382147 0.23843-62.414515L351.169523 646.365612zM350.288456 638.582345c-5.238304-247.158123-19.364023-622.76164-28.034497-701.82944l56.057737 0C369.632013 15.820706 355.525738 391.424222 350.288456 638.582345zM647.501602 158.114502c-11.31879 10.571776-26.486234 15.941064-44.423769 27.691689 8.80248 6.264681 11.17655 16.249079 10.008958 22.022573-1.182942 5.767354-6.308683 17.643845-18.395976 26.123984-5.559623 3.90903-24.470321 10.017144-30.477129 12.335956 0.067538-7.167237 12.851703-19.063171 5.710049-21.817911-3.344165-1.280156-6.522554 0.978281-13.70821 1.830695-8.912997 1.079588-14.175861 1.357927-23.667026 0.719384-10.027377-0.667196-24.864294-4.497431-31.43085-2.575662 4.078899-8.327666 10.18292-20.322861 15.445784-25.589818 6.42534-6.39464 8.819876-9.077749 13.824867-12.099572 7.890714-4.756327 17.693987-9.025561 17.158798-13.381775-0.535189-4.345981-10.090822-5.237281-18.370393-11.973706 13.916964-2.211365 20.771069-7.789407 27.800159-8.748245 8.522094-1.168616 22.804379-2.176572 36.050054 7.743358 4.76042 3.563152 8.826016 13.022595 8.070816 21.812795-12.879332 5.77247-21.481244 10.767228-39.120996 18.23941 34.453696-10.364045 66.843384-30.996968 85.760223-45.169759L647.501602 158.114502zM513.332856 328.03552c3.787256-7.724938 9.457396-18.86772 14.359033-23.76424 5.952572-5.930059 8.167007-8.436136 12.82612-11.235902 7.341199-4.418636 16.434298-8.375761 15.947204-12.420891-0.50142-4.03592-9.375531-4.858658-17.081027-11.128455 12.93459-2.044566 19.305695-7.232728 25.833365-8.123005 7.91425-1.089821 21.173229-2.015913 33.470299 7.184633 4.424776 3.330862 8.211009 12.110829 7.500834 20.270672-11.964496 5.367241-19.942191 10.002818-36.34272 16.943904 32.010041-9.638521 62.102407-28.791743 79.669504-41.949414l-0.234337 2.62785c-10.495028 9.827833-24.576745 14.807241-41.244356 25.706475 8.16803 5.825682 10.373255 15.110139 9.282411 20.468171-1.080611 5.350868-5.861498 16.390295-17.070794 24.26566-5.161556 3.632737-22.741957 9.3039-28.321022 11.444657 0.072655-6.638187 11.94096-17.693987 5.309936-20.259416-3.104711-1.197268-6.061043 0.914836-12.734022 1.709945-8.27957 1.001817-13.170974 1.255597-21.98164 0.665149C533.210579 329.819143 519.435854 326.264177 513.332856 328.03552zM528.061302 425.784798c3.494591-7.130398 8.732895-17.416671 13.260002-21.929452 5.500271-5.491061 7.544837-7.798617 11.842723-10.386558 6.770194-4.075829 15.162328-7.739265 14.715143-11.464099-0.461511-3.734044-8.654101-4.497431-15.771195-10.269901 11.95631-1.902326 17.836227-6.689353 23.871687-7.512091 7.291057-1.001817 19.543102-1.858324 30.890544 6.640234 4.084015 3.055592 7.573489 11.17655 6.935969 18.712177-11.04966 4.953825-18.429745 9.232269-33.55728 15.648398 29.55206-8.897647 57.317427-26.592658 73.54604-38.737256l-0.199545 2.420119c-9.691733 9.067516-22.707165 13.668301-38.095643 23.752983 7.55507 5.369288 9.584286 13.936407 8.573259 18.892279-1.00284 4.940522-5.403057 15.133675-15.767102 22.396079-4.754281 3.354398-20.990057 8.601912-26.140357 10.577916 0.059352-6.142907 11.040451-16.346293 4.90266-18.700921-2.851954-1.109264-5.611811 0.826831-11.755742 1.571798-7.643074 0.925069-12.164041 1.158383-20.298302 0.61296C546.422486 427.430274 533.698696 424.143415 528.061302 425.784798zM542.791795 516.008682c3.198855-6.55223 7.997138-15.986089 12.144598-20.133549 5.057179-5.0142 6.927783-7.140631 10.874675-9.501398 6.196119-3.743254 13.906731-7.101745 13.478989-10.519588-0.408299-3.432169-7.930623-4.122901-14.447037-9.428743 10.951423-1.737574 16.340153-6.123464 21.8701-6.873548 6.697539-0.915859 17.928325-1.713015 28.344558 6.084579 3.733021 2.808976 6.941086 10.242272 6.347568 17.148565-10.115382 4.546549-16.890692 8.480138-30.768771 14.350846 27.108405-8.148587 52.586682-24.378224 67.442018-35.519981l-0.180102 2.224668c-8.893554 8.323573-20.833491 12.539594-34.930557 21.783119 6.916527 4.925173 8.779967 12.782118 7.866155 17.314341-0.924045 4.53734-4.955872 13.892405-14.461363 20.546965-4.376681 3.076058-19.252483 7.885598-23.979134 9.695826 0.058328-5.631254 10.115382-14.987343 4.501524-17.148565-2.62785-1.017166-5.134951 0.759293-10.796904 1.445932-6.994298 0.837064-11.141758 1.050935-18.593474 0.559748C559.624159 517.502709 547.951305 514.494189 542.791795 516.008682zM555.846112 599.528887c2.911306-5.948479 7.268544-14.530948 11.054777-18.297738 4.571109-4.575202 6.285147-6.503111 9.870812-8.655124 5.65172-3.397377 12.656251-6.460132 12.266371-9.56075-0.373507-3.120061-7.209192-3.752464-13.133112-8.576329 9.958816-1.582031 14.861476-5.563716 19.885909-6.254447 6.084579-0.831948 16.311501-1.557472 25.76992 5.539156 3.411703 2.560312 6.317892 9.31618 5.78168 15.59621-9.213849 4.128017-15.361873 7.701402-27.992541 13.050224 24.645306-7.408737 47.819099-22.162766 61.352323-32.302707l-0.176009 2.02103c-8.080026 7.573489-18.940374 11.404748-31.766494 19.811208 6.29845 4.479011 7.988951 11.619642 7.154957 15.742543-0.846274 4.133134-4.502547 12.631692-13.156648 18.696828-3.967358 2.784416-17.494443 7.150864-21.797445 8.820899 0.048095-5.135974 9.204639-13.643742 4.078899-15.60542-2.375094-0.925069-4.659113 0.690732-9.795087 1.313925-6.372128 0.76441-10.148128 0.969071-16.924461 0.50142C571.145563 600.901141 560.548204 598.15561 555.846112 599.528887zM664.829246 632.809875c-7.28594 6.809079-17.050328 10.260691-28.612665 17.835204 5.671163 4.03592 7.205099 10.456143 6.449899 14.185071-0.759293 3.709485-4.069689 11.365862-11.846816 16.822131-3.572362 2.511193-15.752776 6.444782-19.628036 7.944949 0.044002-4.620227 8.275477-12.276604 3.685949-14.059204-2.152013-0.826831-4.209882 0.633427-8.834202 1.182942-5.730515 0.691755-9.127891 0.87595-15.231913 0.467651-6.460132-0.437975-16.019859-2.901073-20.24509-1.669012 2.619664-5.359055 6.55223-13.085016 9.950629-16.47216 4.122901-4.117784 5.67014-5.856381 8.901741-7.788383 5.082762-3.070942 11.386328-5.817496 11.045567-8.611122-0.344854-2.808976-6.499018-3.377934-11.838629-7.719822 8.962116-1.435699 13.386892-5.02341 17.929348-5.636371 5.480828-0.750083 14.666024-1.397836 23.199375 4.988618 3.061732 2.298346 5.681396 8.387018 5.193279 14.048971-8.27957 3.723811-13.83817 6.931876-25.206078 11.746532 22.197558-6.684236 43.065841-19.967774 55.240115-29.090549L664.829246 632.809875zM695.145715 158.114502c11.307533 10.571776 26.470885 15.941064 44.418652 27.691689-8.80248 6.264681-11.18269 16.249079-10.002818 22.022573 1.167592 5.767354 6.307659 17.643845 18.394952 26.123984 5.539156 3.90903 24.470321 10.017144 30.482245 12.335956-0.077771-7.167237-12.865006-19.063171-5.715165-21.817911 3.334955-1.280156 6.522554 0.978281 13.71742 1.830695 8.892531 1.079588 14.169721 1.357927 23.651676 0.719384 10.018168-0.667196 24.848944-4.497431 31.43085-2.575662-4.074805-8.327666-10.177803-20.322861-15.459087-25.589818-6.411013-6.39464-8.806573-9.077749-13.805424-12.099572-7.899924-4.756327-17.692964-9.025561-17.158798-13.381775 0.520863-4.345981 10.081613-5.237281 18.370393-11.973706-13.926174-2.211365-20.780279-7.789407-27.809369-8.748245-8.523117-1.168616-22.805402-2.176572-36.035728 7.743358-4.765537 3.563152-8.826016 13.022595-8.075933 21.812795 12.869099 5.77247 21.481244 10.767228 39.122019 18.23941-34.45472-10.364045-66.844407-30.996968-85.774549-45.169759L695.145715 158.114502zM829.316507 328.03552c-3.797489-7.724938-9.458419-18.86772-14.365172-23.76424-5.948479-5.930059-8.17724-8.436136-12.831236-11.235902-7.329942-4.418636-16.434298-8.375761-15.936971-12.420891 0.50142-4.03592 9.371438-4.858658 17.080004-11.128455-12.941753-2.044566-19.320021-7.232728-25.847691-8.123005-7.909134-1.089821-21.159926-2.015913-33.469276 7.184633-4.420683 3.330862-8.198729 12.110829-7.506974 20.270672 11.964496 5.367241 19.962657 10.002818 36.351929 16.943904-32.011064-9.638521-62.082964-28.791743-79.655178-41.949414l0.213871 2.62785c10.509355 9.827833 24.591071 14.807241 41.257659 25.706475-8.167007 5.825682-10.382465 15.110139-9.29162 20.468171 1.088798 5.350868 5.851265 16.390295 17.080004 24.26566 5.170766 3.632737 22.74298 9.3039 28.321022 11.444657-0.067538-6.638187-11.95631-17.693987-5.315052-20.259416 3.091408-1.197268 6.065136 0.914836 12.738116 1.709945 8.275477 1.001817 13.167904 1.255597 21.973454 0.665149C809.426505 329.819143 823.211463 326.264177 829.316507 328.03552zM814.575782 425.784798c-3.499707-7.130398-8.726755-17.416671-13.249769-21.929452-5.500271-5.491061-7.54586-7.798617-11.842723-10.386558-6.77531-4.075829-15.177678-7.739265-14.72026-11.464099 0.457418-3.734044 8.650007-4.497431 15.766079-10.269901-11.945053-1.902326-17.824971-6.689353-23.852244-7.512091-7.320733-1.001817-19.557428-1.858324-30.909987 6.640234-4.078899 3.055592-7.574512 11.17655-6.921643 18.712177 11.034311 4.953825 18.419512 9.232269 33.553187 15.648398-29.562293-8.897647-57.337893-26.592658-73.562413-38.737256l0.213871 2.420119c9.692756 9.067516 22.704095 13.668301 38.090527 23.752983-7.554046 5.369288-9.579169 13.936407-8.576329 18.892279 1.001817 4.940522 5.393847 15.133675 15.766079 22.396079 4.765537 3.354398 20.999266 8.601912 26.15059 10.577916-0.078795-6.142907-11.031241-16.346293-4.901637-18.700921 2.862187-1.109264 5.602601 0.826831 11.740392 1.571798 7.647167 0.925069 12.170181 1.158383 20.303418 0.61296C796.214599 427.430274 808.935318 424.143415 814.575782 425.784798zM799.847336 516.008682c-3.188622-6.55223-7.989975-15.986089-12.145621-20.133549-5.047969-5.0142-6.921643-7.140631-10.873652-9.501398-6.207375-3.743254-13.898545-7.101745-13.474896-10.519588 0.413416-3.432169 7.924483-4.122901 14.44192-9.428743-10.942213-1.737574-16.34527-6.123464-21.8701-6.873548-6.698562-0.915859-17.937534-1.713015-28.334325 6.084579-3.753487 2.808976-6.952342 10.242272-6.362918 17.148565 10.129708 4.546549 16.900925 8.480138 30.78412 14.350846-27.098171-8.148587-52.577472-24.378224-67.452251-35.519981l0.180102 2.224668c8.892531 8.323573 20.824281 12.539594 34.94079 21.783119-6.92983 4.925173-8.791224 12.782118-7.866155 17.314341 0.915859 4.53734 4.954849 13.892405 14.452153 20.546965 4.374634 3.076058 19.25146 7.885598 23.978111 9.695826-0.058328-5.631254-10.110265-14.987343-4.492314-17.148565 2.618641-1.017166 5.135974 0.759293 10.781554 1.445932 7.009647 0.837064 11.146874 1.050935 18.609847 0.559748C783.023158 517.502709 794.686802 514.494189 799.847336 516.008682zM786.797112 599.528887c-2.916423-5.948479-7.272637-14.530948-11.050684-18.297738-4.590552-4.575202-6.293333-6.503111-9.881045-8.655124-5.64251-3.397377-12.651135-6.460132-12.271488-9.56075 0.379647-3.120061 7.223518-3.752464 13.148461-8.576329-9.959839-1.582031-14.861476-5.563716-19.891026-6.254447-6.094812-0.831948-16.306384-1.557472-25.76992 5.539156-3.417843 2.560312-6.317892 9.31618-5.78168 15.59621 9.203616 4.128017 15.366989 7.701402 27.979238 13.050224-24.635073-7.408737-47.801702-22.162766-61.337997-32.302707l0.180102 2.02103c8.086166 7.573489 18.931165 11.404748 31.762401 19.811208-6.294356 4.479011-7.998161 11.619642-7.160073 15.742543 0.846274 4.133134 4.511757 12.631692 13.156648 18.696828 3.967358 2.784416 17.513886 7.150864 21.808702 8.820899-0.068562-5.135974-9.195429-13.643742-4.089132-15.60542 2.38942-0.925069 4.663206 0.690732 9.803273 1.313925 6.372128 0.76441 10.134825 0.969071 16.924461 0.50142C771.487428 600.901141 782.098089 598.15561 786.797112 599.528887zM677.822165 632.809875c7.281847 6.809079 17.032932 10.260691 28.588105 17.835204-5.659907 4.03592-7.188726 10.456143-6.439666 14.185071 0.759293 3.709485 4.065596 11.365862 11.843746 16.822131 3.577478 2.511193 15.776312 6.444782 19.632129 7.944949-0.044002-4.620227-8.280594-12.276604-3.680832-14.059204 2.152013-0.826831 4.214998 0.633427 8.824993 1.182942 5.738701 0.691755 9.137101 0.87595 15.246239 0.467651 6.459109-0.437975 15.999392-2.901073 20.233833-1.669012-2.618641-5.359055-6.551206-13.085016-9.954723-16.47216-4.13211-4.117784-5.66093-5.856381-8.889461-7.788383-5.081739-3.070942-11.390421-5.817496-11.044544-8.611122 0.335644-2.808976 6.488785-3.377934 11.824303-7.719822-8.966209-1.435699-13.371542-5.02341-17.903765-5.636371-5.485945-0.750083-14.686491-1.397836-23.209608 4.988618-3.066849 2.298346-5.686513 8.387018-5.203512 14.048971 8.289804 3.723811 13.829983 6.931876 25.200962 11.746532-22.183232-6.684236-43.050492-19.967774-55.230905-29.090549L677.822165 632.809875zM672.205237 646.365612c2.594081 9.618055 1.046842 19.869536 2.317789 33.630958 6.225795-3.130294 12.611226-1.440815 15.541975 0.968048 2.929726 2.40477 8.124028 8.912997 9.29162 18.346857 0.545422 4.347005-1.702782 16.959254-2.209318 21.072945-4.040013-2.205225-6.940063-13.0799-10.670014-9.852392-1.737574 1.509377-1.427512 4.015454-3.100618 8.357342-2.078335 5.393847-3.52836 8.469905-6.746658 13.663184-3.411703 5.500271-10.085706 12.778024-10.977006 17.086144-3.490497-4.823865-8.469905-11.920494-9.870812-16.521279-1.704828-5.579065-2.49789-7.744381-2.706645-11.507078-0.312108-5.929036 0.207731-12.792351-2.420119-13.805424-2.638083-1.017166-6.02625 4.152577-12.369725 6.829546 2.956332-8.581446 1.860371-14.165628 3.446495-18.46249 1.923816-5.194302 5.656837-13.616112 15.294334-18.147312 3.465938-1.620917 10.07138-1.080611 14.842033 2.00568-0.603751 9.06854-0.369414 15.474436-1.451048 27.760251 4.527107-22.717398 2.584871-47.382147 0.23843-62.414515L672.205237 646.365612zM671.323147 638.582345c-5.237281-247.158123-19.363-622.76164-28.033473-701.82944l56.056714 0C690.667727 15.820706 676.561451 391.424222 671.323147 638.582345z" transform="translate(0, 812) scale(1, -1)"/>
</svg>
