<?xml version="1.0" encoding="utf-8"?>
<!DOCTYPE svg PUBLIC "-//W3C//DTD SVG 1.1//EN" "http://www.w3.org/Graphics/SVG/1.1/DTD/svg11.dtd">
<svg version="1.1" id="图形" xmlns="http://www.w3.org/2000/svg" xmlns:xlink="http://www.w3.org/1999/xlink" x="0px" y="0px" width="1024px" height="1024px" viewBox="0 0 1024 1024" enable-background="new 0 0 1024 1024" xml:space="preserve">
  <path fill="#272636" d="M867.865475 509.576179c-20.338211-19.753903-45.614897-44.731784-75.831083-74.958202 2.90005-0.573051 7.848759-2.601244 14.81645-6.095835 2.325975-1.157359 3.493567-3.781116 3.493567-7.848759 0-4.067642-2.038426-6.382361-6.106068-6.977925-11.034311-2.314719-29.344329-9.281387-54.908564-20.911262-17.438161-7.550976-34.864042-15.399735-52.29504-23.536043-8.718569-3.483334-34.280758-12.19167-76.699869-26.14752l-9.589402-3.483334c1.167592-12.787234-3.340071-31.240515-13.502525-55.337329-10.174734-24.118304-19.62292-41.117466-28.331255-50.993394l3.483334-3.483334c15.685237-2.910283 31.956829-14.242376 48.810682-33.996279 13.944594-16.8559 28.176736-33.708729 42.704614-50.553373 17.438161-16.853853 36.32123-24.405853 56.659441-22.663162 55.19509 3.482311 95.582939 16.557094 121.146151 39.22128 1.157359 1.168616 2.325975 1.741667 3.485381 1.741667 6.391571 0 9.589402-3.770883 9.589402-11.332093 0-2.899026-1.157359-5.511527-3.483334-7.848759-19.754926-23.810289-32.827663-38.923498-39.22128-45.305859-13.370519-13.95585-28.472472-26.445302-45.327348-37.47859-22.080901-13.371542-44.74611-20.052708-67.982324-20.052708-26.148543 0-50.265824 8.719592-72.346725 26.136264-11.618619 8.730848-24.976858 30.800493-40.093137 66.25089-12.201903 28.472472-31.668257 46.485731-58.388828 54.036707-2.912329-17.427928-4.938476-54.907541-6.108115-112.438838 0-16.269545 5.223978-47.355541 15.687284-93.256964 9.301853-42.99114 17.438161-73.79061 24.405853-92.375897 2.323928-6.393617-0.871857-9.590426-9.579169-9.590426-4.067642 0-6.691399 1.74269-7.848759 5.225001-6.976902 27.315112-13.944594 54.907541-20.921495 82.796728-9.876951 40.09109-14.81645 72.344678-14.81645 96.751554 0 48.227398 1.167592 92.089371 3.493567 131.60741 0 0-0.297782 2.899026-0.881067 8.719592-4.640694 2.314719-9.876951 3.482311-15.687284 3.482311l-7.836479-16.557094c-0.583285-11.618619-2.038426-32.254611-4.365424-61.885466-1.74269-23.237237-2.612501-42.703591-2.612501-58.401108 0-19.169595 1.167592-39.507806 3.483334-61.003376 4.650927-43.585681 15.69547-83.677794 33.123398-120.287597 0.585331-1.157359 0.871857-2.314719 0.871857-3.483334 0-2.90926-1.740644-4.365424-5.223978-4.365424-6.393617 0-11.332093 3.494591-14.82566 10.472516-20.338211 43.564191-30.789237 95.572706-31.373545 156.002007-0.584308 18.596544 0.583285 58.688657 3.483334 120.287597-49.969065-51.721988-106.618273-91.229794-169.957857-118.54593-29.046546-6.966669-64.497966-15.972786-106.331747-27.007097-4.65195-1.169639-8.135284 0.286526-10.461259 4.354168-1.741667 4.640694-1.157359 8.432043 1.741667 11.320836 5.236258 3.494591 12.500709 8.433066 21.793352 14.81645 45.9004 34.878368 85.707011 73.503061 119.405507 115.932406 17.427928 22.079878 34.867112 37.468356 52.29504 46.198182 17.427928 8.709359 40.378639 13.07376 68.852134 13.07376l0.881067 1.741667c-16.853853 16.269545-29.641087 34.568307-38.349423 54.906517-4.65195 12.775978-10.461259 34.282804-17.439184 64.497966l-15.686261 6.107091c-6.393617-2.337231-28.185946 5.799076-65.367777 24.40483-18.013259 8.709359-40.378639 22.068621-67.11149 40.08188-29.057803 19.753903-47.940872 34.867112-56.660464 45.327348-10.44898 13.361309-23.535019 30.79947-39.220257 52.29504-2.315742 2.90926-3.484358 6.393617-3.484358 10.450003 0 8.729825 3.781116 13.072737 11.332093 13.072737 2.325975 0 4.641717-0.574075 6.978948-1.741667 8.708336-4.641717 27.888164-12.479219 57.519018-23.524786-4.067642 8.708336-9.590426 21.783119-16.557094 39.22128-10.461259 31.956829-17.140379 67.110467-20.051685 105.460914 0.584308 7.550976 3.197832 11.332093 7.848759 11.332093 1.741667 0 3.76986-0.871857 6.095835-2.612501 15.696494-11.044544 40.676421-27.315112 74.958202-48.811706 12.202926 12.19167 28.175713 30.501688 47.940872 54.907541 6.966669 11.034311 12.202926 11.332093 15.686261 0.870834 3.483334-9.302877 8.709359-19.753903 15.686261-31.372521 9.293667 11.045567 18.883069 22.068621 28.760021 33.114189 14.528901 16.853853 26.731828 27.889187 36.608779 33.124422 8.719592 4.646833 13.371542 3.776 13.944594-2.617617 0.584308-13.354146 3.781116-38.928614 9.590426-76.694753 29.057803 31.372521 52.580542 54.608735 70.605058 69.721945 4.057409 3.494591 8.124028 4.646833 12.19167 3.494591 4.067642-1.168616 6.108115-2.90926 6.108115-5.236258 0-2.325975 1.455141-13.07376 4.353145-32.243355 16.854876 4.641717 40.093137 14.231119 69.733201 28.748764 2.90005 1.752924 5.668093 1.609661 8.280594-0.428765 2.612501-2.039449 3.62762-4.508687 3.053546-7.407714-3.495614-10.461259-7.265474-25.849738-11.334139-46.199205 19.756973 4.65195 43.278689 10.471492 70.593801 17.439184 3.483334 0.573051 5.810333-0.154519 6.978948-2.182712 1.157359-2.028193 1.730411-4.497431 1.730411-7.407714-0.574075-11.044544-1.444908-24.119327-2.602268-39.22128 12.774955 2.325975 24.693402 6.107091 35.737946 11.332093 12.19167 3.484358 18.297738-0.285502 18.297738-11.332093-8.718569-9.876951-16.268522-16.84362-22.662139-20.922519l3.483334-0.859577c13.370519 4.640694 29.92966 10.163477 49.682539 16.556071 4.067642 1.158383 6.976902 0.574075 8.719592-1.741667 1.157359-2.337231 1.157359-4.650927 0-6.977925-8.136308-13.94357-13.361309-25.848715-15.697517-35.726689 1.167592 0 19.466354 5.799076 54.91675 17.416671 2.90005 1.168616 5.52176 0.727571 7.848759-1.300622 2.316765-2.02717 2.90005-4.795213 1.74269-8.289804-5.236258-11.618619-12.214183-27.293623-20.921495-47.058782 34.866089 0.584308 55.202253 0.584308 61.014632 0C872.21862 522.363414 873.674784 517.711464 867.865475 509.576179L867.865475 509.576179zM847.825047 509.576179c-13.372565 1.741667-31.670304 0.286526-54.918797-4.353145-2.325975-1.157359-4.795213-0.727571-7.40669 1.311879-2.614547 2.028193-3.342118 4.783956-2.172479 8.267291 4.640694 11.618619 11.608386 27.315112 20.912285 47.070039l-54.908564-17.439184c-6.974855 0-10.172687 3.196809-9.589402 9.590426 8.136308 15.113209 12.787234 26.743084 13.944594 34.877345-23.236214-5.246491-39.078017-9.743922-47.499827-13.514805-8.432043-3.781116-19.608593-11.486612-33.555234-23.105231-6.976902-5.223978-13.944594-11.618619-20.921495-19.168572 9.876951 2.325975 31.382754 4.640694 64.497966 6.977925 4.650927-2.337231 8.719592-6.107091 12.20395-11.332093-0.585331-4.65195-3.781116-11.045567-9.591449-19.180851l0-11.33107c11.629875-1.741667 26.731828-5.225001 45.327348-10.450003 3.483334 1.157359 6.681166 1.741667 9.589402 1.741667 5.812379 0 8.710382-2.039449 8.710382-6.107091 0-1.741667-0.574075-3.483334-1.740644-5.225001-6.969739-4.65195-16.559141-13.954827-28.760021-27.888164l26.146497-7.848759C796.102035 457.567665 819.349505 479.945325 847.825047 509.576179L847.825047 509.576179zM697.906595 597.608142c-12.787234-2.325975-22.950711-2.90926-30.512944-1.741667-0.572028 5.809309-1.740644 14.241352-3.481288 25.26543 1.167592 2.910283 1.740644 6.691399 1.740644 11.332093 0 4.65195-0.574075 8.135284-1.740644 10.471492-23.821545-5.820566-43.874253-11.629875-60.142775-17.439184 0-6.966669 0.87902-10.746762 2.622734-11.332093-0.583285-24.405853-5.236258-59.844993-13.944594-106.331747-0.583285-2.325975 0.585331-4.067642 3.483334-5.225001L697.906595 597.608142 697.906595 597.608142zM598.541517 679.535059c-1.740644 0-12.929474-5.379521-33.555234-16.116049-20.623713-10.759041-32.969902-15.84078-37.036521-15.256472-4.069689 1.168616-6.691399 6.966669-7.850805 17.427928-1.157359 8.135284-2.026146 16.269545-2.612501 24.405853-9.876951-6.977925-23.248494-18.596544-40.09109-34.868135-19.753903-18.585287-30.215162-31.084972-31.373545-37.47859 0-13.360286-0.583285-32.827663-1.7519-58.390875l6.976902 0c27.888164 37.180807 44.159756 55.777351 48.810682 55.777351 2.316765 0 6.383384-8.123005 12.20395-24.393573 6.383384-18.012236 12.19167-28.483728 17.427928-31.383778l62.755276 67.1207-5.236258 6.085602C590.119707 642.353229 593.89059 658.038466 598.541517 679.535059L598.541517 679.535059zM778.961656 424.166951c-2.90005 1.158383-18.297738 5.225001-46.186925 12.192693-5.810333-0.573051-8.719592 2.623757-8.719592 9.590426 0 3.483334 1.740644 6.107091 5.223978 7.848759 8.719592 5.225001 18.299785 12.19167 28.770254 20.922519-6.391571 2.899026-14.82566 4.640694-25.27464 5.225001-13.956873 1.741667-22.378683 2.910283-25.278733 3.483334-8.718569 0-11.627828 4.65195-8.718569 13.944594 5.223978 6.393617 8.718569 15.113209 10.461259 26.14752-50.553373 0-85.276199-10.30674-104.159268-30.94171-18.883069-20.624736-35.010375-60.275805-48.371684-118.964462 10.461259 8.135284 22.664186 19.169595 36.608779 33.114189 1.157359 1.741667 2.612501 2.623757 4.355191 2.623757 6.974855 0 11.044544-3.494591 12.201903-10.471492l-0.871857-12.192693c2.910283-12.787234 4.067642-22.664186 3.483334-29.630854C674.074817 372.15946 729.576899 394.536097 778.961656 424.166951L778.961656 424.166951zM589.833181 601.974589c-8.718569-5.820566-29.642111-27.602661-62.767556-65.3688-7.550976 6.382361-13.646811 15.675004-18.297738 27.888164-6.393617 15.102976-11.034311 24.979928-13.944594 29.631878l-47.071062-60.143799-4.354168 6.967692c-10.461259 5.235235-26.434046 14.82566-47.929616 28.770254l-5.236258 0 0-9.590426c0-8.134261 12.489452-40.675398 37.47859-97.622388 24.990161-59.261709 41.260729-91.51632 48.799426-96.741321 7.563256 8.708336 17.72571 21.782096 30.512944 39.22128 0.583285 2.325975 2.325975 3.483334 5.236258 3.483334 3.483334-0.573051 6.095835-2.90926 7.836479-6.966669l19.180851-31.383778c22.654976 70.318532 38.340213 131.034359 47.057759 182.160783C586.337567 562.752286 587.496973 579.310404 589.833181 601.974589L589.833181 601.974589zM433.808662 562.752286c-1.157359 19.753903-2.028193 32.529881-2.612501 38.340213-0.583285 5.820566-5.225001 36.309974-13.944594 91.515297-13.94357-8.708336-33.410947-31.085996-58.401108-67.110467-4.640694-6.393617-8.851599-6.107091-12.632715 0.88209-3.781116 6.967692-10.317996 17.714454-19.61064 32.233122-11.618619-16.259312-28.186969-34.856879-49.682539-55.778374-6.392594 0.584308-18.883069 7.275707-37.47859 20.051685-12.775978 8.719592-25.26543 17.427928-37.479613 26.14752-0.573051-11.629875 2.325975-30.215162 8.719592-55.789631 2.910283-12.775978 7.848759-28.462239 14.815427-47.058782 9.3039-24.990161 16.568351-38.062897 21.793352-39.231513 6.967692 18.6078 15.984043 39.530318 27.01733 62.766532 3.484358 7.550976 7.265474 8.135284 11.332093 1.741667 5.225001-9.876951 14.81645-24.405853 28.760021-43.586704l43.586704 45.328371c4.056386-2.910283 10.163477-6.966669 18.297738-12.202926 0 6.393617-0.870834 15.399735-2.612501 27.018354l-1.7519 6.107091c0 2.90926 1.168616 5.225001 3.494591 6.967692 2.899026 1.167592 5.809309 0.583285 8.719592-1.74269 21.49557-18.012236 33.113165-27.602661 34.855856-28.771277C418.993235 570.579555 423.93171 567.978311 433.808662 562.752286L433.808662 562.752286zM815.570435 127.815429c-16.270569-4.640694-32.827663-9.292644-49.682539-13.933337-19.168572-5.236258-36.025495-7.849782-50.553373-7.849782-16.270569-0.583285-32.244378 3.771907-47.941895 13.07376-12.201903 6.966669-28.17469 25.26543-47.927569 54.918797-16.270569 24.978904-37.195134 40.080857-62.757323 45.304835-11.618619-3.482311-20.623713-6.094812-27.01733-7.837502l0-8.719592c18.597567-6.966669 30.78719-12.489452 36.606733-16.557094 13.361309-9.876951 23.23826-24.118304 29.631878-42.704614 18.597567-54.035684 51.997258-82.223676 100.235912-84.548628 19.168572-0.574075 41.977044 6.393617 68.410066 20.921495C791.02132 94.414715 808.019459 110.398758 815.570435 127.815429L815.570435 127.815429zM595.929016 390.171696c-6.976902-2.325975-15.114233-9.3039-24.405853-20.922519-5.810333-8.135284-11.916401-16.269545-18.299785-24.405853-5.820566-6.966669-13.657045-3.483334-23.533996 10.461259-6.393617 9.888208-12.499685 20.051685-18.310018 30.501688-5.226025-5.225001-12.919241-15.541975-23.093974-30.931476-10.163477-15.410991-16.998139-23.678282-20.481474-24.846898-4.65195 0.583285-14.815427 6.393617-30.501688 17.439184-11.044544 7.550976-22.079878 15.101953-33.124422 22.652929 0.583285-5.809309 1.741667-14.815427 3.483334-27.018354 1.168616-16.270569 8.135284-35.869952 20.922519-58.820664 12.787234-22.960944 24.979928-37.920658 36.608779-44.898583 18.013259-11.033287 32.541137-16.557094 43.575448-16.557094 5.808286 0 14.242376 2.039449 25.27464 6.095835 11.04659 4.078899 18.312064 7.848759 21.795399 11.332093 18.59552 20.349467 31.370475 48.524157 38.350446 84.549651C598.256014 346.298466 598.839299 368.090794 595.929016 390.171696L595.929016 390.171696zM463.450772 350.950416c-21.506826 47.64309-46.199205 102.847389-74.087369 165.592432-5.809309 13.95585-15.686261 26.445302-29.630854 37.47859-11.618619-14.528901-26.731828-30.203906-45.328371-47.070039-10.461259 5.820566-20.911262 19.765159-31.372521 41.845037l-5.235235 0c-5.225001-19.753903-11.618619-40.092114-19.169595-61.003376l-93.269243 35.726689c18.023492-26.14752 32.683377-44.01547 44.01547-53.605895 11.332093-9.590426 34.139541-25.993001 68.422346-49.241494 13.371542-8.719592 32.541137-18.883069 57.531298-30.501688 27.304879-12.787234 45.613874-19.180851 54.907541-19.180851 0 1.168616-0.286526 2.910283-0.870834 5.225001-0.584308 2.337231-0.871857 4.078899-0.871857 5.246491 0 4.630461 2.899026 7.540743 8.719592 8.709359L463.450772 350.950416 463.450772 350.950416zM473.030965 205.398412c-6.967692 6.393617-19.753903 9.589402-38.340213 9.589402-28.484751 0-53.463656-9.888208-74.958202-29.642111-0.584308 0-18.883069-20.338211-54.918797-61.013609-11.618619-13.361309-25.848715-26.720571-42.703591-40.092114-20.338211-16.270569-34.56933-28.186969-42.704614-35.726689 4.650927 0 16.557094 2.028193 35.737946 6.084579 19.168572 4.077875 31.085996 6.989181 35.726689 8.729825 34.282804 13.934361 72.346725 37.181831 114.180506 69.722968C446.883445 165.580544 469.546607 189.700895 473.030965 205.398412z" transform="translate(0, 812) scale(1, -1)"/>
</svg>
