<?xml version="1.0" encoding="utf-8"?>
<!DOCTYPE svg PUBLIC "-//W3C//DTD SVG 1.1//EN" "http://www.w3.org/Graphics/SVG/1.1/DTD/svg11.dtd">
<svg version="1.1" id="图形" xmlns="http://www.w3.org/2000/svg" xmlns:xlink="http://www.w3.org/1999/xlink" x="0px" y="0px" width="1024px" height="1024px" viewBox="0 0 1024 1024" enable-background="new 0 0 1024 1024" xml:space="preserve">
  <path fill="#272636" d="M598.507748-25.002049c-48.600905 0.788969-73.479525 23.12672-86.117356 61.622476-10.628058 32.456203-15.741519 66.600861-23.613814 99.901291-6.607488 28.077475 1.436722 44.862767 32.345686 56.860009 52.05047 20.186761 92.842525 54.849212 123.80777 105.34221-51.418067-31.721469-160.748101-109.720937-162.471348-89.263 0 70.084195 41.767266 151.921062 64.345494 220.153072C427.477466 274.783689 398.06253 171.673309 484.412177-8.868603c-19.707854 4.596691-28.89919-3.592828-33.837666 0.542352-47.227628 39.477107-95.54303-7.887644-144.031371-40.536228-6.090718-4.078899-4.195555-31.639604-2.010797-32.128745 47.626717-10.502192 95.483678-22.446221 143.914714-26.227338 50.6731-3.943822 102.32141-3.102664 152.820548 2.176572 41.995463 4.380774 82.8438 18.254759 130.47154 29.27372C692.041004-22.281077 642.229528-25.654918 598.507748-25.002049zM679.688675 366.415642c-26.484188-14.665001-42.170448-38.307468-41.651632-59.147098 0.112564-6.421246 56.30333 17.575284 59.69252 12.106736 4.077875-6.611581-44.296879-41.788755-36.9434-45.13599 18.84623-8.67866 46.419216-6.610558 71.354118 7.128351 34.529421 19.098987 63.600527 92.175329 63.600527 92.175329S714.273355 385.512582 679.688675 366.415642zM643.321396 407.877963c14.075577-6.475482 34.759665-4.898567 53.428863 5.385661 25.854854 14.284331 47.629787 69.023026 47.629787 69.023026s-61.015655 8.951883-86.923722-5.332449c-19.820418-11.018961-31.598672-28.729322-31.197536-44.319391 0.11461-4.814656 42.169425 13.168927 44.696991 9.061376C674.000116 436.743384 637.748471 410.433158 643.321396 407.877963zM765.405919 469.036881c-14.994506-8.325619-23.842011-21.710464-23.553439-33.491789 0.056282-3.643993 31.824823 9.931187 33.779338 6.829546 2.296299-3.726881-25.105794-23.642466-20.913309-25.546839 10.686387-4.89652 26.25599-3.726881 40.390919 4.081968 19.532869 10.772344 35.963073 52.153824 35.963073 52.153824S784.995069 479.838901 765.405919 469.036881zM564.209594 339.182394c10.631128-4.926196 26.25599-3.729951 40.390919 4.051269 19.531845 10.800997 35.964096 52.182476 35.964096 52.182476s-46.077432 6.774287-65.668629-4.02671c-14.992459-8.324596-23.840988-21.711488-23.552415-33.490765 0.056282-3.64604 31.824823 9.931187 33.779338 6.827499C587.421248 361.000306 560.018132 341.085744 564.209594 339.182394zM640.275014 516.919425c1.26583-3.428076 27.003004 18.826787 29.875424 16.405645 3.447519-2.829442-16.142655-29.818119-11.54801-30.362518 11.778254-1.577938 26.25599 4.109598 37.114293 15.699564 15.052834 15.968693 17.178241 60.09775 17.178241 60.09775s-46.074362-7.018857-61.127196-23.043832C640.219755 543.391333 636.140856 528.04788 640.275014 516.919425zM790.10853 533.32507c3.38919-2.829442-16.141632-29.818119-11.54801-30.362518 11.778254-1.577938 26.254967 4.109598 37.114293 15.699564 14.996552 15.968693 17.120936 60.09775 17.120936 60.09775s-46.075385-7.018857-61.126172-23.043832c-11.490705-12.3247-15.570627-27.668153-11.490705-38.795585C761.443677 513.491349 787.23918 535.746212 790.10853 533.32507zM642.574383 609.421188c3.447519-2.857071-16.144702-29.818119-11.546987-30.416753 11.777231-1.551332 26.253944 4.161786 37.113269 15.697517 15.052834 15.997346 17.178241 60.153008 17.178241 60.153008s-46.076408-7.045463-61.127196-23.070438c-11.549034-12.297071-15.627932-27.641547-11.490705-38.768979C613.963765 589.588491 639.701962 611.843354 642.574383 609.421188zM514.057357 505.140147c3.791349-0.871857-1.781576 31.722492 1.896186 32.674167 4.365424 1.14201 17.522072-29.109991 20.509103-25.790386 7.870248 8.513908 10.686387 23.069415 6.492878 38.006616-5.916756 20.676925-43.777039 46.52257-43.777039 46.52257s-18.958794-40.374546-13.041014-61.0791C490.67481 519.585137 501.99053 507.969589 514.057357 505.140147zM310.448076 476.844707c16.431228-5.331425 32.921807-2.910283 42.168402 5.007037 2.816139 2.447748-28.837792 16.295128-27.574009 19.723204 1.435699 4.107551 35.273365-2.503007 34.009582 1.714038-2.987031 10.882861-14.189164 21.302165-29.586852 26.281573-21.429055 6.964622-65.207118-8.352225-65.207118-8.352225S289.020044 483.756117 310.448076 476.844707zM309.243645 313.170974c1.836835 3.237741-32.863479 6.39464-32.863479 10.04068-0.112564 4.325515 34.184567 8.651031 31.541367 12.240789-6.66377 9.304923-20.853957 15.644305-37.170574 15.534811-22.63451-0.135076-58.656935-28.265764-58.656935-28.265764s36.423561-27.615964 59.060117-27.451212C288.56058 295.405355 303.267537 302.806929 309.243645 313.170974zM260.467755 421.589242c1.836835 3.181459-32.862455 6.365988-32.920784 9.984399-0.056282 4.353145 34.184567 8.651031 31.540344 12.243859-6.662747 9.359158-20.795629 15.669888-37.112246 15.560394-22.63451-0.135076-58.656935-28.26781-58.656935-28.26781s36.423561-27.612894 59.058071-27.423583C239.726362 403.768365 254.49267 411.224174 260.467755 421.589242zM345.49529 558.32751c3.849678 0.298805-12.58155 29.383214-9.422603 31.451316 3.734044 2.475378 26.542516-22.146393 28.207435-18.065448 4.538363 10.446933 2.184759 25.110911-6.951319 37.925774-12.695137 17.739013-57.33687 30.444383-57.33687 30.444383s-4.076852-43.992957 8.676613-61.70434C318.376653 564.721127 333.084633 557.212106 345.49529 558.32751zM448.962803 558.32751c3.849678 0.298805-12.58155 29.383214-9.420557 31.451316 3.735068 2.475378 26.542516-22.146393 28.207435-18.065448 4.482081 10.446933 2.184759 25.110911-6.949272 37.925774-12.700253 17.739013-57.33687 30.444383-57.33687 30.444383s-4.079922-43.992957 8.673543-61.70434C421.847236 564.721127 436.555216 557.212106 448.962803 558.32751zM548.986891 499.917192c-4.194532-21.411659 2.356674-41.462321 15.051811-51.339272 3.906983-3.072989 17.004279 38.824237 21.944801 37.98001 5.919826-1.062192 3.333932-44.264133 8.964162-41.925878 14.420431 5.876847 26.65815 21.710464 30.622438 41.845037 5.514597 27.831882-24.074302 79.19776-24.074302 79.19776S554.502511 527.802286 548.986891 499.917192zM424.202886 457.147086c13.384845-17.71036 33.150004-27.205619 49.463552-25.41074 4.999874 0.51677-17.752316 38.578644-13.616112 41.352827 4.883217 3.320629 35.908838-28.483728 38.09155-22.988574 5.51562 13.876032 1.951445 33.219589-10.571776 49.897434-17.350157 23.070438-76.868715 38.578644-76.868715 38.578644S406.794401 480.246177 424.202886 457.147086zM365.316731 343.233664c29.471219-3.128247 56.18565 6.640234 68.424392 23.072485 3.847631 5.004991-54.348816 17.166985-53.66013 23.288402 0.861624 7.345292 59.863413 8.107655 56.18872 14.799054-9.307993 17.005302-32.000831 30.470989-59.750849 33.465183-38.319747 4.136204-105.422028-36.674271-105.422028-36.674271S326.938656 347.344285 365.316731 343.233664zM436.324972 300.004093c-6.319939 11.562337-21.716604 20.676925-40.560788 22.744004-26.084075 2.803859-71.701019-24.946159-71.701019-24.946159s37.919634-36.594453 64.061015-39.368636c19.992333-2.149966 38.147832 4.489244 46.476521 15.669888 2.585895 3.402493-36.94033 11.672854-36.479843 15.836687C398.69391 294.916215 438.795233 295.432984 436.324972 300.004093zM774.977925 631.593164c-56.028061 51.824319-137.952932 69.375044-210.393801 44.213991-32.739659 20.036335-70.203922 30.56104-108.897176 30.56104-104.569614 0-193.703677-78.979796-207.387327-181.645037-60.630892-29.027104-99.231025-89.718371-99.231025-157.436682 0-96.376001 78.395488-174.803211 174.772512-174.803211 39.796378 0 78.764901 13.776771 109.753683 38.783305 7.426133 5.984295 8.591679 16.906042 2.578732 24.332175-5.984295 7.42511-16.907065 8.558933-24.333198 2.545986-25.159006-20.312628-55.597249-31.051203-87.999217-31.051203-77.292364 0-140.191926 62.899562-140.191926 140.191926 0 57.101509 34.272571 108.004853 87.323834 129.668245 6.012947 2.483564 10.125615 8.099469 10.6782 14.603603 7.426133 89.840144 83.887572 160.229285 174.034708 160.229285 34.796504 0 68.391646-10.247388 97.236602-29.578666 4.692882-3.191692 10.646478-3.773953 15.95539-1.718131 62.839187 24.700565 135.066185 10.431583 183.731558-35.376719 0.889253-0.828878 1.870604-1.534959 2.914376-2.179642 52.989865-32.063253 84.657098-87.967494 84.657098-149.519362 0-96.376001-78.396511-174.772512-174.771489-174.772512-18.381649 0-36.513612 2.851954-53.881165 8.53028-9.144264 2.945075-18.87079-1.994424-21.847587-11.078313-2.914376-9.080819 1.994424-18.839067 11.107989-21.813818 20.833491-6.78145 42.586934-10.249435 64.61974-10.249435 115.459638 0 209.350029 93.92109 209.350029 209.383798C874.760512 526.593761 837.511143 593.022707 774.977925 631.593164z" transform="translate(0, 812) scale(1, -1)"/>
</svg>
