<?xml version="1.0" encoding="utf-8"?>
<!DOCTYPE svg PUBLIC "-//W3C//DTD SVG 1.1//EN" "http://www.w3.org/Graphics/SVG/1.1/DTD/svg11.dtd">
<svg version="1.1" id="图形" xmlns="http://www.w3.org/2000/svg" xmlns:xlink="http://www.w3.org/1999/xlink" x="0px" y="0px" width="1294px" height="1024px" viewBox="0 0 1294 1024" enable-background="new 0 0 1294 1024" xml:space="preserve">
  <path fill="#272636" d="M949.793482 683.652864l-604.16 0c-45.243392 0-81.92-36.676608-81.92-81.92l0-604.16c0-45.243392 36.676608-81.92 81.92-81.92l604.16 0c45.243392 0 81.92 36.676608 81.92 81.92l0 604.16C1031.713482 646.976256 995.036874 683.652864 949.793482 683.652864zM1000.993482 601.732864l0-102.081536L847.734474 499.651328 847.734474 652.932864l102.059008 0C978.025162 652.932864 1000.993482 629.964544 1000.993482 601.732864zM479.094474 130.887424 479.094474 284.549888l337.92 0 0-153.662464L479.094474 130.887424zM479.094474 499.651328 479.094474 652.932864l337.92 0 0-153.281536L479.094474 499.651328zM632.694474 468.931328l0-153.662464L294.433482 315.268864 294.433482 468.931328 632.694474 468.931328zM448.374474 284.549888l0-153.662464L294.433482 130.887424 294.433482 284.549888 448.374474 284.549888zM847.734474 284.549888l153.259008 0 0-153.662464L847.734474 130.887424 847.734474 284.549888zM663.414474 315.269888 663.414474 468.931328l337.579008 0 0-153.662464L663.414474 315.268864zM345.633482 652.932864l102.740992 0 0-153.281536L294.433482 499.651328l0 102.081536C294.433482 629.964544 317.401802 652.932864 345.633482 652.932864zM294.433482-2.427136l0 102.59456 338.260992 0 0-153.79456L345.633482-53.627136C317.401802-53.627136 294.433482-30.658816 294.433482-2.427136zM949.793482-53.627136 663.414474-53.627136l0 153.79456 337.579008 0 0-102.59456C1000.993482-30.658816 978.025162-53.627136 949.793482-53.627136z" transform="translate(0, 812) scale(1, -1)"/>
</svg>
