<?xml version="1.0" encoding="utf-8"?>
<!DOCTYPE svg PUBLIC "-//W3C//DTD SVG 1.1//EN" "http://www.w3.org/Graphics/SVG/1.1/DTD/svg11.dtd">
<svg version="1.1" id="图形" xmlns="http://www.w3.org/2000/svg" xmlns:xlink="http://www.w3.org/1999/xlink" x="0px" y="0px" width="1024px" height="1024px" viewBox="0 0 1024 1024" enable-background="new 0 0 1024 1024" xml:space="preserve">
  <path fill="#272636" d="M227.210303 461.2618l43.538609-47.51313M382.841873 309.604752l165.237345-17.056468 84.447321-180.304506-29.970592-73.013921M227.210303 461.2618l-124.680651-27.978215-18.876929-93.052303M81.003384 347.025013l-21.192671-84.610026M428.705434 204.467203l22.51683-44.539402 6.461155-47.52234-3.812839-21.020756M305.025577 375.336826 356.187817 320.533662 446.583616 175.821793ZM623.749642 762.937584l-4.306072-13.911848-2.64934-12.749372-1.992377-12.246929-1.485841-11.920494-2.153036-12.091386-3.14462-12.579503-5.135974-13.57825-7.948019-14.904455-10.595312-16.885576-12.913101-20.363793-14.07353-25.833365-13.743002-32.943296-12.749372-41.72838-10.263761-52.486398-6.78452-65.066925-1.990331-79.473029M623.749642 762.937584l-6.955412-14.237259-9.93835-13.911848-11.921517-13.911848-13.244652-14.237259-13.743002-14.570857-13.739932-15.561417-12.579503-16.885576-11.263531-18.048051-8.776897-20.031219-6.621814-21.858844-4.468778-24.175609-2.316765-26.320459-0.666172-28.977985 1.324158-31.789007 2.982938-34.772968 4.306072-37.744649M623.749642 762.937584l-3.477194-14.07353-0.170892-13.245675 2.153036-13.08297 3.478218-13.245675 3.810792-13.903661 3.306302-14.903431 1.819438-16.551978-0.819668-18.544355-3.973498-20.868283-6.79373-23.175839-9.273201-25.338085-10.929934-27.481911-12.417821-29.302373-13.074783-30.961152-13.243629-32.617885-12.921287-34.113959M957.864232 500.502523l-22.01234-14.894222-21.030989-16.065907-19.868513-16.391319-18.707061-16.055674-17.72264-14.741749-16.886599-12.741185-15.893992-9.93835-15.228843-6.28924-14.407128-2.64934-15.066137-0.828878L763.819794 388.419795l-20.533662-4.973268-25.167193-10.759041-31.456433-19.210527-38.744419-30.293957-47.846728-43.709501M957.864232 500.502523l-16.551978-12.0832-16.392342-10.930957-16.226566-9.432837-16.055674-7.948019-15.570627-6.28924-15.562441-4.63967-15.066137-2.813069-14.732539-0.827855-14.56881 1.161453-14.246469 1.64957-14.56881 0.99977-14.570857-0.828878-15.066137-4.306072-15.724123-8.93858-16.561188-14.903431-17.877159-22.355147M957.864232 500.502523l-15.722076-10.262738-14.408151-5.632277-12.912078-2.15406-12.255115 0.829901-11.921517 2.982938-11.585873 4.136204-11.921517 4.803399-12.417821 4.306072-13.414521 3.14462-14.237259 1.49505-15.06716-1.162476-16.055674-4.469801-16.895809-8.27957-17.877159-12.913101-18.876929-18.381649-19.535939-24.337291M315.126632 473.686784l5.955642 19.364023 9.604752 18.714224 12.256138 17.715477 13.570063 15.732309 14.244422 13.740956 14.237259 11.091616 12.579503 7.948019 10.595312 4.306072 7.622608 0.324388 5.298679-2.973728 3.803629-5.79396 3.476171-7.78429 4.145413-8.93858 5.460362-9.605775 7.78429-9.44307 11.092639-8.443299M512.485559 418.380154l-5.298679 37.087687-9.271154 29.807886-13.579273 22.355147-17.552771 14.895245-21.526269 6.79373-25.492604-0.99977-29.472242-9.43386-33.610492-17.715477M955.54849 84.427246l-67.88511 29.798676-46.027289 38.087457-29.797653 42.386366-19.543102 42.387389-15.228843 38.239929-16.887622 29.635971-24.173562 17.056468-37.754882 0.171915M339.293031 366.063625l-17.219173 22.517853-16.885576 14.732539-16.391319 8.117888-15.732309 2.64934-14.895245-1.657756-14.245446-5.136997-13.072737-7.280824-12.092409-8.442276-10.92277-8.776897-10.271948-8.443299-10.261715-8.27957-10.425444-7.452739-11.426237-6.78452-12.749372-5.792936-14.741749-4.641717-17.219173-3.14462M859.026156 683.788943l-88.248903-84.934414-70.040193-70.697155-54.305837-58.280358-41.224914-47.847751-30.139437-39.07904-23.842011-66.723657-6.623861-11.262508M591.293439 279.968781l1.324158 0.828878 49.010227 38.907125 16.885576 17.381879 16.561188 20.038382 15.896038 22.184255 14.902408 23.672142 13.571087 24.671912 12.254092 25.166169 10.596336 25.167193 8.937556 24.670889 8.281617 24.508183 8.613168 24.499997 10.263761 24.670889 12.913101 25.328875 17.21815 26.166963 22.022573 27.320229 28.481681 28.636201M859.026156 683.788943l-45.701878-33.93488-44.539402-31.789007-43.043329-30.140461-40.403199-29.303396-37.582967-28.977985-33.94409-29.634948-29.798676-30.464849-24.840758-32.446993-19.868513-34.43937-18.039865-70.867024-6.79373-18.21178M955.54849 84.427246l-29.473265 20.698414-20.193925 17.878183-12.920264 16.561188-7.946996 15.893992-4.965082 16.22759-4.136204 17.878183-5.470595 20.363793-9.271154 23.842011-14.238282 27.653827-21.020756 27.644617-27.988448 23.183002-36.096103 14.237259-44.864814 0.829901-86.266759-41.720194-24.50102-15.0733M782.526855 256.782709l-25.996071 20.534685-26.320459 11.425214-26.157753 3.14462-25.834388-3.640923-52.153824-31.787984M502.213611 316.389272l2.982938 9.766434 7.949043 67.057255 1.324158 26.663266-3.14462 21.020756-6.956436 16.065907-10.425444 11.750625-13.579273 7.948019-16.22759 4.476965-19.040658 1.983167-21.525246-0.162706-24.00574-1.657756-26.157753-2.64934-28.148084-2.64934-30.132274-2.315742M439.798073 485.93269l3.14462-24.004717-0.659009-20.859074-3.314489-18.545378-4.965082-16.560164-7.614421-49.838082-5.298679-14.398942-3.648087-14.238282-0.325411-3.314489M350.223988 350.999534l-3.14462 6.288217-11.254322 11.255345-13.08297 7.291057-14.408151 3.6399-14.732539 0.829901-14.569834-1.324158-13.580297-2.813069-12.254092-3.972475-11.588943-4.469801-11.920494-5.136997-13.903661-5.134951-16.562211-5.298679-20.697391-5.126764-25.662473-4.640694-32.122605-4.136204M372.740818 354.972009l-1.658779 2.479471-11.749602 14.407128-13.416568 13.740956-14.895245 13.741979-16.22759 13.416568-17.552771 13.903661-17.551748 15.065114-16.554024 17.886369-14.407128 21.688975L237.635747 508.126154l-6.78452 33.113165-1.163499 40.72861 5.630231 49.66719" transform="translate(0, 812) scale(1, -1)"/>
</svg>
