<?xml version="1.0" encoding="utf-8"?>
<!DOCTYPE svg PUBLIC "-//W3C//DTD SVG 1.1//EN" "http://www.w3.org/Graphics/SVG/1.1/DTD/svg11.dtd">
<svg version="1.1" id="图形" xmlns="http://www.w3.org/2000/svg" xmlns:xlink="http://www.w3.org/1999/xlink" x="0px" y="0px" width="1024px" height="1024px" viewBox="0 0 1024 1024" enable-background="new 0 0 1024 1024" xml:space="preserve">
  <path fill="#272636" d="M444.933-98.595c7.52 70.15 34.426 338.841 3.27 437.182-11.11 35.067-30.052 50.244-36.318 72.488 10.458-13.124 22.571-23.9 31.431-18.275 19.158 12.155 13.495 38.765 17.574 82.646 10.474-49.835 27.337-92.645 54.192-103.062 24.848-9.629 54.636-5.186 81.246 3.265-23.027-20.389-42.571-19.024-63.71-65.897-28.808-63.882-13.781-288.1 2.506-408.346l-90.192-0zM444.5 552.6c-11.807 0.869-19.906 0.319-30.813-4.273-10.123-4.262-18.799-9.85-25.709-18.493-2.063-2.562-5.033-6.798-7.498-11.050 6.006 12.705 13.538 23.379 13.299 51.864-0.223 27.697-18.203 39.589-19.524 54.389-2.218-13.895-20.357-23.545-22.432-46.065-1.448-15.715 4.152-32.243 9.692-44.027 2.364-4.984 5.349-10.47 8.414-16.2-6.902 10.575-16.66 19.293-27.583 26.456-8.066 5.287-20.846 10.92-30.756 11.697-12.638 0.997-22.731 0.265-34.518 5.427 5.238-6.66 7.24-15.917 10.237-24.387 3.709-10.474 13.825-19.557 20.547-22.393 10.84-4.565 21.392-9.386 33.087-10.391 8.254-0.725 23.514 0.74 30.859 1.535-10.351-2.148-18.652-6.273-26.422-15.368-8.31-9.722-9.66-23.854-16.793-34.574 8.733 0.437 21.087 9.603 28.993 13.693 13.758 7.098 15.61 21.111 16.723 25.126 0.596 2.121 0.961 4.337 1.184 6.277-0.257-15.256 4.335-49.229 18.368-74.86 3.421-6.23 7.724-12.578 11.444-18.928 0.985 3.065 3.736 4.804 1.893 6.607-20.243 19.793-29.043 53.527-30.854 85.432 0.695-3.42 1.851-7.407 3.897-10.628 11.466-18.075 36.154-19.226 45.15-30.066-5.653 12.823-6.142 22.896-15.463 33.085-3.873 4.225-10.446 9.093-15.28 11.197-4.904 2.121-8.942 2.715-13.418 3.173 7.057-0.356 19.395-0.779 25.283 0.182 12.234 1.976 21.873 4.282 30.189 11.426 5.823 5.022 12.597 11.224 16.105 17.984 4.104 7.894 8.726 12.476 13.712 14.699-5.21 3.075-15.643 0.978-22.012 1.455zM585.227 557.924c-8.503 8.617-15.098 13.629-26.577 17.443-10.657 3.53-21.080 5.051-32.211 3.055-3.307-0.584-8.44-1.837-13.202-3.456 13.174 5.735 26.138 8.883 45.111 30.944 18.448 21.461 12.603 42.69 21.55 54.975-11.049-9.203-31.488-4.437-48.228-20.362-11.677-11.112-18.482-27.58-22.146-40.376-1.536-5.415-2.931-11.664-4.422-18.121 1.808 12.769 0.157 26.041-3.43 38.894-2.643 9.504-8.69 22.42-15.79 29.682-9.049 9.257-17.306 15.487-22.908 27.378-0.44-8.644-5.128-17.107-8.52-25.638-4.184-10.55-2.515-24.351 0.75-31.038 5.264-10.804 10.152-21.605 18.468-30.251 5.857-6.102 18.577-15.229 24.766-19.555-9.402 5.313-18.565 7.712-30.658 5.955-12.918-1.903-23.462-11.855-36.162-15.314 7.021-5.543 22.674-6.794 31.504-8.963 15.362-3.788 26.204 5.744 29.76 8.087 1.889 1.223 3.659 2.688 5.133 4.023-10.457-11.561-29.758-40.777-36.2-69.928-1.562-7.092-2.512-14.867-3.925-22.236 2.822 1.692 6.106 1.17 5.9 3.793-2.264 28.824 13.647 60.7 33.712 86.46-1.773-3.093-3.563-6.943-4.161-10.794-3.326-21.605 14.886-39.102 14.525-53.484 4.268 13.658 10.666 21.735 10.339 35.847-0.136 5.854-1.915 14.006-4.225 18.881-2.336 4.939-5.046 8.094-8.178 11.47 5.188-5.022 14.395-13.64 19.556-16.859 10.75-6.704 19.712-11.424 30.917-11.507 7.846-0.064 17.23 0.165 24.474 2.99 8.468 3.311 15.098 3.742 20.434 2.085-1.945 5.875-11.376 11.281-15.956 15.919zM369.579 551.539c7.95 6.303 13.946 9.804 23.889 11.819 9.228 1.846 18.064 2.068 27.118-0.723 2.707-0.832 6.841-2.406 10.636-4.227-10.376 6.112-20.856 10.055-34.406 30.342-13.178 19.73-6.165 36.818-12.368 47.959 8.267-8.8 25.762-6.897 38.094-21.853 8.589-10.427 12.586-24.845 14.325-35.858 0.736-4.664 1.262-9.998 1.852-15.532-0.207 10.814 2.5 21.698 6.802 32.025 3.167 7.638 9.498 17.79 16.148 23.113 8.471 6.786 15.976 11.123 21.841 20.471-0.501-7.254 2.54-14.772 4.497-22.218 2.421-9.203-0.369-20.518-3.768-25.759-5.483-8.461-10.646-16.96-18.438-23.298-5.501-4.492-17.016-10.804-22.602-13.777 8.365 3.458 16.228 4.538 26.125 1.849 10.558-2.892 18.321-12.259 28.543-16.411-6.394-3.907-19.565-3.358-27.135-4.273-13.168-1.591-21.226 7.447-23.948 9.744-1.45 1.226-2.773 2.617-3.859 3.868 7.528-10.676 20.627-36.945 23.038-61.872 0.579-6.063 0.585-12.63 1.005-18.914-2.172 1.7-4.953 1.599-4.523 3.768 4.817 23.764-5.205 51.91-19.293 75.391 1.161-2.771 2.256-6.154 2.367-9.422 0.584-18.321-16.357-31.037-17.508-43.047-2.175 11.801-6.673 19.192-4.975 30.899 0.703 4.847 3.013 11.471 5.432 15.275 2.447 3.878 5.022 6.241 7.968 8.736-4.826-3.656-13.364-9.906-17.993-12.057-9.624-4.498-17.56-7.517-26.892-6.456-6.542 0.748-14.334 1.892-20.070 4.984-6.717 3.613-12.197 4.639-16.798 3.814 2.213 4.695 10.612 8.225 14.895 11.638zM306.253 396.697c0.577 8.47 1.786 14.161 6.138 21.451 4.044 6.76 8.888 12.356 15.715 16.4 2.035 1.197 5.339 2.882 8.607 4.209-9.632-2.992-17.963-7.263-38.17-4.226-19.637 2.945-26.274 16.912-36.656 19.336 10.098 0.175 18.769 12.074 34.969 11.298 11.307-0.558 22.473-6.193 30.282-11.316 3.307-2.177 6.91-4.858 10.66-7.611-6.809 5.965-12.024 13.776-16.001 22.255-2.951 6.259-5.669 15.908-5.215 23.014 0.554 9.076 2.094 16.163-0.384 25.054 4.203-4.389 10.577-6.739 16.289-9.722 7.059-3.685 12.501-11.782 13.833-16.841 2.153-8.159 4.51-16.144 4.051-24.542-0.32-5.927-2.89-16.62-4.196-21.752 2.567 7.137 6.325 12.607 13.569 17.216 7.732 4.92 17.903 4.454 26.237 8.442-1.185-6.158-8.947-14.006-12.642-19.211-6.425-9.055-16.561-8.954-19.52-9.349-1.569-0.201-3.173-0.236-4.574-0.209 10.863-1.354 34.514-8.033 51.303-20.573 4.084-3.065 8.154-6.75 12.285-10.026-2.28-0.391-3.778-2.176-4.873-0.685-12.020 16.365-35.088 26.004-57.561 30.496 2.36-0.821 5.076-2.057 7.153-3.832 11.684-9.952 10.016-27.595 16.807-35.080-8.529 5.299-15.64 6.672-21.935 14.307-2.611 3.182-5.411 8.335-6.403 11.974-1.027 3.705-1.038 6.631-0.915 9.853-0.46-5.041-1.396-13.851-2.676-17.93-2.63-8.497-5.231-15.111-11.147-20.287-4.146-3.642-9.243-7.814-14.391-9.631-6.018-2.133-9.738-4.939-11.823-8.262-1.653 4.019 0.882 11.217 1.183 15.781zM564.907 545.513c14-0.999 23.397-3.011 35.422-10.245 11.147-6.714 20.372-14.754 27.011-26.061 1.977-3.377 4.735-8.837 6.911-14.242-4.893 15.925-11.899 29.728-6.781 63.096 4.965 32.446 28.085 43.333 32.146 60.481 0.23-16.702 19.858-31.090 18.479-57.847-0.975-18.688-10.345-37.109-18.863-49.99-3.612-5.459-8.045-11.385-12.613-17.58 9.879 11.242 22.826 19.803 36.844 26.345 10.365 4.829 26.318 9.283 38.071 8.489 14.979-0.972 26.693-3.55 41.399 0.512-7.279-6.933-11.194-17.442-16.144-26.884-6.14-11.644-19.542-20.58-27.917-22.756-13.492-3.523-26.697-7.373-40.568-6.578-9.805 0.559-27.45 4.867-35.932 7.052 11.784-4.269 20.811-10.518 28.378-22.501 8.094-12.816 7.27-29.617 13.819-43.411-10.17 1.985-23.086 14.854-31.674 20.992-14.93 10.657-14.708 27.405-15.35 32.309-0.33 2.596-0.379 5.249-0.32 7.553-2.286-17.945-13.456-56.994-34.265-84.655-5.068-6.743-11.2-13.456-16.63-20.252-0.64 3.76-3.571 6.247-1.102 8.050 27.104 19.757 43.162 57.844 50.708 94.957-1.391-3.89-3.449-8.371-6.384-11.801-16.516-19.254-45.662-16.4-58.058-27.588 8.796 14.070 11.101 25.804 23.762 36.168 5.259 4.308 13.793 8.893 19.826 10.52 6.114 1.682 10.94 1.674 16.269 1.462-8.334 0.796-22.887 2.381-29.62 4.51-14.018 4.399-24.93 8.736-33.46 18.533-5.985 6.868-12.865 15.305-15.834 23.829-3.479 9.962-8.119 16.107-13.591 19.576 6.641 2.714 18.516-1.51 26.062-2.040zM397.715 328.048c-6.119 2.215-10.052 4.296-14.497 9.045-4.121 4.399-7.216 9.148-8.754 15.020-0.453 1.757-0.989 4.537-1.273 7.228 0.166-7.722 1.548-14.758-4.952-28.984-6.313-13.835-17.997-15.772-21.971-22.901 2.009 7.469-4.927 16.371-0.927 28.124 2.795 8.201 9.303 15.237 14.716 19.903 2.3 1.967 5.028 4.059 7.849 6.238-5.823-3.76-12.673-5.95-19.751-7.082-5.231-0.85-12.906-0.814-18.041 1.020-6.559 2.318-11.453 4.955-18.523 5.006 4.121 2.175 7.199 6.369 10.595 9.936 4.209 4.419 11.312 6.707 15.314 6.624 6.456-0.139 12.833-0.083 18.917-2.197 4.298-1.491 11.62-5.634 15.128-7.682-4.705 3.401-7.945 7.317-9.804 13.618-1.99 6.732 0.497 14.117-0.677 21.093 4.28-2.166 8.415-9.539 11.47-13.364 5.301-6.631 3.090-14.067 2.749-16.337-0.176-1.197-0.49-2.387-0.809-3.4 3.287 7.711 13.2 23.698 25.982 33.406 3.106 2.369 6.678 4.581 9.967 6.933-0.192-1.766 0.796-3.248-0.535-3.742-14.577-5.376-26.539-20.326-34.585-35.92 1.107 1.564 2.588 3.31 4.327 4.464 9.797 6.485 22.435 1.537 29.371 4.957-5.702-5.157-8.213-10.108-15.164-13.126-2.892-1.253-7.273-2.212-10.162-2.177-2.942 0.015-5.095 0.623-7.44 1.398 3.611-1.398 9.894-3.948 12.631-5.751 5.694-3.733 10.013-7.046 12.583-12.485 1.798-3.816 3.796-8.451 4.038-12.625 0.301-4.879 1.586-8.206 3.596-10.446-3.312-0.378-8.064 3.017-11.363 4.207zM368.151 392.003c3.583 5.416 6.537 8.754 12.203 11.967 5.245 2.963 10.585 4.858 16.653 4.976 1.81 0.028 4.643-0.111 7.322-0.468-7.541 1.657-14.698 1.966-27.011 11.626-11.955 9.385-11.095 21.204-17.096 26.738 6.783-3.706 17.073 0.94 27.56-5.71 7.315-4.636 12.625-12.611 15.881-18.979 1.378-2.698 2.766-5.836 4.221-9.093-2.282 6.542-2.795 13.711-2.241 20.857 0.402 5.287 2.241 12.732 5.228 17.296 3.804 5.836 7.51 9.972 9.225 16.83 1.133-4.516 4.492-8.487 7.164-12.632 3.307-5.131 3.861-12.568 2.841-16.446-1.651-6.247-3.096-12.45-6.581-17.865-2.457-3.832-8.21-9.969-11.018-12.898 4.404 3.769 8.978 6.001 15.535 6.331 7.014 0.348 13.603-3.808 20.661-4.3-3.112-3.649-11.242-5.946-15.679-8.015-7.693-3.585-14.402 0.304-16.524 1.16-1.125 0.458-2.212 1.045-3.124 1.592 6.724-5.002 19.941-18.403 26.373-33.102 1.564-3.579 2.877-7.565 4.386-11.318-1.666 0.603-3.34-0.015-3.505 1.392-1.805 15.432-13.514 30.58-26.782 42.067 1.254-1.445 2.603-3.291 3.317-5.259 4-11.042-3.775-22.163-2.078-29.711-3.68 6.76-7.894 10.356-9.196 17.829-0.538 3.101-0.448 7.582 0.265 10.381 0.713 2.864 1.808 4.812 3.112 6.916-2.21-3.194-6.16-8.7-8.558-10.93-4.965-4.667-9.203-8.079-15.093-9.295-4.136-0.849-9.106-1.71-13.217-0.968-4.821 0.867-8.352 0.391-10.997-1.036 0.413 3.313 4.833 7.128 6.757 10.063zM573.931 445.004c7.848-6.43 12.554-11.535 16.625-20.83 3.778-8.624 5.883-17.204 5.072-26.653-0.237-2.81-0.892-7.19-1.864-11.287 3.76 11.442 5.371 22.512 22.323 40.074 16.482 17.067 34.663 13.847 44.22 22.282-6.827-9.952-1.247-26.646-13.241-41.867-8.365-10.611-21.595-17.58-31.982-21.634-4.409-1.701-9.508-3.356-14.79-5.094 10.524 2.488 21.737 2.157 32.742 0.165 8.136-1.473 19.407-5.506 26.025-10.876 8.433-6.833 14.263-13.246 24.642-16.985-7.186-1.052-13.894-5.625-20.75-9.123-8.476-4.316-20.124-3.998-25.974-1.793-9.432 3.56-18.835 6.794-26.681 13.052-5.565 4.424-14.184 14.325-18.274 19.156 5.165-7.437 7.887-14.886 7.36-25.126-0.575-10.931-8.073-20.511-9.959-31.39-5.17 5.43-7.433 18.41-9.944 25.615-4.356 12.522 2.758 22.319 4.421 25.466 0.897 1.682 1.974 3.265 2.965 4.6-8.832-9.633-31.721-28.015-55.554-35.675-5.806-1.855-12.221-3.266-18.269-5.007 1.198 2.484 0.508 5.181 2.712 5.223 24.245 0.345 49.611 16.122 69.555 34.885-2.447-1.72-5.52-3.513-8.69-4.309-17.78-4.47-33.796 9.375-45.79 7.949 11.073 4.627 17.338 10.602 29.133 11.434 4.895 0.338 11.853-0.512 16.093-2.068 4.308-1.555 7.156-3.577 10.216-5.926-4.597 3.941-12.514 10.959-15.599 15.020-6.441 8.449-11.076 15.566-12.030 24.907-0.657 6.549-1.202 14.407 0.601 20.664 2.112 7.344 1.939 12.904 0.155 17.23 5.054-1.169 10.298-8.615 14.535-12.081zM503.462 498.284c-6.631 1.161-11.224 1.318-17.664-0.649-5.968-1.829-11.192-4.491-15.6-8.972-1.313-1.337-3.229-3.567-4.862-5.837 4.118 6.842 8.983 12.451 10.488 28.568 1.46 15.669-8.031 23.428-7.924 31.876-2.050-7.737-12.852-12.156-15.319-24.76-1.717-8.809 0.494-18.469 2.959-25.448 1.048-2.965 2.416-6.238 3.825-9.641-3.297 6.366-8.311 11.863-14.083 16.528-4.252 3.449-11.159 7.372-16.712 8.379-7.094 1.29-12.836 1.445-19.208 5.048 2.583-4.070 3.178-9.422 4.386-14.378 1.498-6.128 6.699-11.855 10.341-13.839 5.864-3.203 11.558-6.541 18.105-7.757 4.626-0.896 13.338-0.954 17.542-0.907-5.982-0.62-10.909-2.478-15.825-7.17-5.249-5.032-6.827-12.944-11.473-18.598 4.963-0.247 12.473 4.234 17.178 6.084 8.187 3.231 10.029 11.041 10.899 13.246 0.453 1.17 0.787 2.396 1.025 3.475-1.020-8.598-0.37-28.072 6.096-43.365 1.573-3.725 3.646-7.557 5.383-11.361 0.738 1.692 2.388 2.506 1.455 3.621-10.314 12.356-13.355 31.932-12.55 50.071 0.195-1.969 0.626-4.291 1.594-6.23 5.439-10.877 19.339-12.935 23.802-19.584-2.459 7.575-2.168 13.3-6.845 19.593-1.944 2.618-5.389 5.736-8.004 7.188-2.648 1.501-4.893 2.061-7.396 2.58 3.961-0.602 10.922-1.555 14.298-1.354 7.033 0.423 12.613 1.173 17.728 4.739 3.58 2.489 7.765 5.625 10.134 9.238 2.776 4.225 5.648 6.559 8.599 7.527-2.778 2.040-8.794 1.455-12.37 2.087z" transform="translate(0, 812) scale(1, -1)"/>
</svg>
